<svg width="46" height="38" viewBox="0 0 46 38" fill="none" xmlns="http://www.w3.org/2000/svg">
<path d="M0.886656 36.556L5.49466 28.6H6.77866L8.61466 36.868L7.52266 37.12L7.01866 34.72H3.13066L1.79866 37.096L0.886656 36.556ZM3.67066 33.76H6.81466L5.96266 29.716L3.67066 33.76ZM14.3517 32.02C14.1437 31.892 13.9237 31.788 13.6917 31.708C13.4677 31.62 13.2157 31.576 12.9357 31.576C12.5997 31.576 12.2957 31.644 12.0237 31.78C11.7517 31.916 11.5197 32.104 11.3277 32.344C11.1357 32.576 10.9877 32.852 10.8837 33.172C10.7797 33.492 10.7277 33.836 10.7277 34.204C10.7277 34.812 10.8797 35.296 11.1837 35.656C11.4877 36.008 11.9037 36.184 12.4317 36.184C12.7357 36.184 13.0037 36.148 13.2357 36.076C13.4677 36.004 13.6797 35.92 13.8717 35.824L14.0037 36.772C13.8037 36.86 13.5597 36.944 13.2717 37.024C12.9917 37.104 12.6517 37.144 12.2517 37.144C11.8597 37.144 11.5037 37.08 11.1837 36.952C10.8637 36.816 10.5877 36.624 10.3557 36.376C10.1237 36.128 9.94369 35.836 9.81569 35.5C9.68769 35.156 9.62369 34.772 9.62369 34.348C9.62369 33.844 9.69969 33.368 9.85169 32.92C10.0117 32.472 10.2397 32.076 10.5357 31.732C10.8317 31.388 11.1877 31.116 11.6037 30.916C12.0197 30.716 12.4917 30.616 13.0197 30.616C13.3957 30.616 13.7277 30.664 14.0157 30.76C14.3037 30.848 14.5637 30.96 14.7957 31.096L14.3517 32.02ZM19.6954 32.02C19.4874 31.892 19.2674 31.788 19.0354 31.708C18.8114 31.62 18.5594 31.576 18.2794 31.576C17.9434 31.576 17.6394 31.644 17.3674 31.78C17.0954 31.916 16.8634 32.104 16.6714 32.344C16.4794 32.576 16.3314 32.852 16.2274 33.172C16.1234 33.492 16.0714 33.836 16.0714 34.204C16.0714 34.812 16.2234 35.296 16.5274 35.656C16.8314 36.008 17.2474 36.184 17.7754 36.184C18.0794 36.184 18.3474 36.148 18.5794 36.076C18.8114 36.004 19.0234 35.92 19.2154 35.824L19.3474 36.772C19.1474 36.86 18.9034 36.944 18.6154 37.024C18.3354 37.104 17.9954 37.144 17.5954 37.144C17.2034 37.144 16.8474 37.08 16.5274 36.952C16.2074 36.816 15.9314 36.624 15.6994 36.376C15.4674 36.128 15.2874 35.836 15.1594 35.5C15.0314 35.156 14.9674 34.772 14.9674 34.348C14.9674 33.844 15.0434 33.368 15.1954 32.92C15.3554 32.472 15.5834 32.076 15.8794 31.732C16.1754 31.388 16.5314 31.116 16.9474 30.916C17.3634 30.716 17.8354 30.616 18.3634 30.616C18.7394 30.616 19.0714 30.664 19.3594 30.76C19.6474 30.848 19.9074 30.96 20.1394 31.096L19.6954 32.02ZM23.2392 36.184C23.5992 36.184 23.9192 36.116 24.1992 35.98C24.4792 35.844 24.7192 35.656 24.9192 35.416C25.1192 35.176 25.2712 34.896 25.3752 34.576C25.4792 34.256 25.5312 33.908 25.5312 33.532C25.5312 33.26 25.4872 33.004 25.3992 32.764C25.3192 32.524 25.1992 32.316 25.0392 32.14C24.8872 31.964 24.6992 31.828 24.4752 31.732C24.2512 31.628 23.9952 31.576 23.7072 31.576C23.3552 31.576 23.0352 31.644 22.7472 31.78C22.4672 31.916 22.2272 32.104 22.0272 32.344C21.8272 32.584 21.6752 32.868 21.5712 33.196C21.4672 33.516 21.4152 33.86 21.4152 34.228C21.4152 34.5 21.4552 34.756 21.5352 34.996C21.6152 35.236 21.7312 35.444 21.8832 35.62C22.0432 35.796 22.2352 35.936 22.4592 36.04C22.6912 36.136 22.9512 36.184 23.2392 36.184ZM23.2032 37.144C22.7552 37.144 22.3512 37.076 21.9912 36.94C21.6392 36.796 21.3392 36.6 21.0912 36.352C20.8432 36.104 20.6512 35.808 20.5152 35.464C20.3792 35.112 20.3112 34.732 20.3112 34.324C20.3112 33.804 20.3912 33.32 20.5512 32.872C20.7112 32.416 20.9392 32.024 21.2352 31.696C21.5392 31.36 21.9032 31.096 22.3272 30.904C22.7512 30.712 23.2232 30.616 23.7432 30.616C24.1832 30.616 24.5832 30.688 24.9432 30.832C25.3032 30.968 25.6072 31.16 25.8552 31.408C26.1032 31.656 26.2952 31.956 26.4312 32.308C26.5672 32.652 26.6352 33.028 26.6352 33.436C26.6352 33.956 26.5552 34.444 26.3952 34.9C26.2352 35.348 26.0032 35.74 25.6992 36.076C25.4032 36.404 25.0432 36.664 24.6192 36.856C24.1952 37.048 23.7232 37.144 23.2032 37.144ZM29.4022 37.144C29.1622 37.144 28.9342 37.104 28.7182 37.024C28.5102 36.944 28.3222 36.828 28.1542 36.676C27.9942 36.524 27.8662 36.34 27.7702 36.124C27.6822 35.908 27.6382 35.664 27.6382 35.392C27.6382 35.288 27.6422 35.184 27.6502 35.08C27.6582 34.968 27.6702 34.852 27.6862 34.732L28.3702 30.76H29.4502L28.7542 34.708C28.7382 34.788 28.7262 34.86 28.7182 34.924C28.7182 34.98 28.7182 35.044 28.7182 35.116C28.7182 35.476 28.8222 35.744 29.0302 35.92C29.2382 36.096 29.4822 36.184 29.7622 36.184C29.9862 36.184 30.2102 36.132 30.4342 36.028C30.6662 35.916 30.8782 35.76 31.0702 35.56C31.2622 35.36 31.4302 35.116 31.5742 34.828C31.7262 34.532 31.8342 34.196 31.8982 33.82L32.4382 30.76H33.5182L32.7262 35.308C32.7182 35.348 32.7102 35.396 32.7022 35.452C32.7022 35.5 32.7022 35.552 32.7022 35.608C32.7022 35.832 32.7662 35.992 32.8942 36.088C33.0222 36.176 33.1902 36.22 33.3982 36.22L33.0262 37.06C32.5942 37.06 32.2622 36.956 32.0302 36.748C31.8062 36.54 31.6942 36.208 31.6942 35.752V35.644C31.1102 36.644 30.3462 37.144 29.4022 37.144ZM38.3914 31.564C38.1834 31.564 37.9554 31.624 37.7074 31.744C37.4674 31.856 37.2314 32.032 36.9994 32.272C36.7754 32.512 36.5714 32.82 36.3874 33.196C36.2034 33.564 36.0674 34.004 35.9794 34.516L35.5474 37H34.4674L35.5594 30.76H36.6034L36.3394 32.2C36.5874 31.72 36.9194 31.336 37.3354 31.048C37.7514 30.76 38.1954 30.616 38.6674 30.616C38.9394 30.616 39.1874 30.66 39.4114 30.748C39.6354 30.836 39.8234 30.96 39.9754 31.12C40.1354 31.272 40.2554 31.452 40.3354 31.66C40.4234 31.868 40.4674 32.092 40.4674 32.332C40.4674 32.54 40.4434 32.792 40.3954 33.088L39.7114 37H38.6314L39.2914 33.268C39.3314 33.076 39.3554 32.936 39.3634 32.848C39.3714 32.76 39.3754 32.672 39.3754 32.584C39.3754 32.272 39.2834 32.024 39.0994 31.84C38.9234 31.656 38.6874 31.564 38.3914 31.564ZM41.7498 30.988H42.8538L43.4298 29.02H44.2578L43.9098 30.988H45.6378L45.4818 31.924H43.7418L43.2378 34.84C43.2058 35 43.1898 35.152 43.1898 35.296C43.1898 35.576 43.2698 35.796 43.4298 35.956C43.5978 36.108 43.8218 36.184 44.1018 36.184C44.3338 36.184 44.5258 36.152 44.6778 36.088C44.8378 36.016 44.9858 35.944 45.1218 35.872L45.2538 36.808C45.1018 36.896 44.9098 36.972 44.6778 37.036C44.4538 37.108 44.2018 37.144 43.9218 37.144C43.6978 37.144 43.4778 37.108 43.2618 37.036C43.0458 36.972 42.8538 36.872 42.6858 36.736C42.5178 36.592 42.3818 36.408 42.2778 36.184C42.1738 35.96 42.1218 35.692 42.1218 35.38C42.1218 35.292 42.1258 35.204 42.1338 35.116C42.1418 35.02 42.1538 34.912 42.1698 34.792L42.6618 31.924H41.5938L41.7498 30.988Z" fill="#181725"/>
<path d="M19.0298 12.07C19.1706 12.0175 19.3221 11.9903 19.4752 11.9898C19.6283 11.9893 19.78 12.0156 19.9212 12.0672C20.0625 12.1188 20.1905 12.1945 20.2976 12.29C20.4048 12.3855 20.4889 12.4988 20.545 12.6231C20.6012 12.7475 20.6282 12.8804 20.6244 13.014C20.6207 13.1477 20.5864 13.2793 20.5234 13.4011C20.4604 13.523 20.3701 13.6325 20.2578 13.7234C20.1454 13.8142 20.0134 13.8845 19.8694 13.93C19.1037 14.1934 18.4466 14.6519 17.9835 15.2458C17.5203 15.8397 17.2727 16.5415 17.2727 17.26V19C17.2727 19.2652 17.3934 19.5196 17.6082 19.7071C17.823 19.8946 18.1144 20 18.4181 20H27.5817C27.8855 20 28.1769 19.8946 28.3917 19.7071C28.6065 19.5196 28.7272 19.2652 28.7272 19V17.353C28.7273 16.6115 28.4693 15.8874 27.9873 15.2768C27.5054 14.6662 26.8222 14.1979 26.0285 13.934C25.8836 13.8901 25.7503 13.8213 25.6365 13.7316C25.5227 13.6419 25.4307 13.5332 25.3659 13.4119C25.3011 13.2905 25.2648 13.1591 25.2593 13.0253C25.2538 12.8916 25.2791 12.7582 25.3337 12.6331C25.3883 12.508 25.4711 12.3938 25.5772 12.2972C25.6833 12.2006 25.8106 12.1235 25.9515 12.0706C26.0923 12.0177 26.2439 11.9901 26.3972 11.9893C26.5505 11.9885 26.7025 12.0146 26.844 12.066C28.0715 12.4742 29.1279 13.1983 29.8733 14.1425C30.6188 15.0867 31.018 16.2063 31.018 17.353V19C31.018 19.7956 30.656 20.5587 30.0116 21.1213C29.3671 21.6839 28.4931 22 27.5817 22H18.4181C17.5068 22 16.6327 21.6839 15.9883 21.1213C15.3439 20.5587 14.9818 19.7956 14.9818 19V17.26C14.982 16.1402 15.3681 15.0463 16.0901 14.1206C16.8121 13.195 17.8364 12.4805 19.0298 12.07ZM22.9999 2C24.2151 2 25.3805 2.42143 26.2397 3.17157C27.099 3.92172 27.5817 4.93913 27.5817 6V8C27.5817 9.06087 27.099 10.0783 26.2397 10.8284C25.3805 11.5786 24.2151 12 22.9999 12C21.7848 12 20.6194 11.5786 19.7601 10.8284C18.9009 10.0783 18.4181 9.06087 18.4181 8V6C18.4181 4.93913 18.9009 3.92172 19.7601 3.17157C20.6194 2.42143 21.7848 2 22.9999 2ZM22.9999 4C22.3923 4 21.8097 4.21071 21.38 4.58579C20.9504 4.96086 20.709 5.46957 20.709 6V8C20.709 8.53043 20.9504 9.03914 21.38 9.41421C21.8097 9.78929 22.3923 10 22.9999 10C23.6075 10 24.1902 9.78929 24.6198 9.41421C25.0495 9.03914 25.2908 8.53043 25.2908 8V6C25.2908 5.46957 25.0495 4.96086 24.6198 4.58579C24.1902 4.21071 23.6075 4 22.9999 4Z" fill="#181725"/>
</svg>
