<svg width="303" height="251" viewBox="0 0 303 251" fill="none" xmlns="http://www.w3.org/2000/svg">
<path d="M6.11469 237.215C5.50669 237.215 4.94135 237.354 4.41869 237.631C3.90669 237.898 3.45869 238.277 3.07469 238.767C2.70135 239.247 2.40802 239.829 2.19469 240.511C1.98135 241.194 1.87469 241.941 1.87469 242.751C1.87469 243.253 1.93335 243.711 2.05069 244.127C2.17869 244.543 2.35469 244.901 2.57869 245.199C2.81335 245.498 3.09602 245.733 3.42669 245.903C3.76802 246.063 4.15202 246.143 4.57869 246.143C4.94135 246.143 5.28802 246.074 5.61869 245.935C5.94935 245.786 6.24802 245.589 6.51469 245.343C6.78135 245.087 7.00535 244.789 7.18669 244.447C7.36802 244.106 7.49602 243.733 7.57069 243.327L7.71469 242.543H5.37869L5.58669 241.343H9.34669L8.72269 244.943C8.71202 244.997 8.70135 245.061 8.69069 245.135C8.69069 245.199 8.69069 245.269 8.69069 245.343C8.69069 245.631 8.77069 245.839 8.93069 245.967C9.10135 246.095 9.33602 246.159 9.63469 246.159L9.10669 247.359C7.93335 247.359 7.34669 246.789 7.34669 245.647C7.01602 246.159 6.58935 246.591 6.06669 246.943C5.54402 247.295 4.90935 247.471 4.16269 247.471C3.60802 247.471 3.09602 247.37 2.62669 247.167C2.15735 246.965 1.74669 246.671 1.39469 246.287C1.05335 245.893 0.786688 245.418 0.594688 244.863C0.402688 244.298 0.306688 243.663 0.306688 242.959C0.306688 241.946 0.450688 241.007 0.738688 240.143C1.02669 239.279 1.42669 238.533 1.93869 237.903C2.46135 237.274 3.08535 236.783 3.81069 236.431C4.53602 236.069 5.33069 235.887 6.19469 235.887C6.87735 235.887 7.47469 235.983 7.98669 236.175C8.50935 236.357 8.99469 236.591 9.44269 236.879L8.64269 238.095C8.25869 237.829 7.86935 237.615 7.47469 237.455C7.09069 237.295 6.63735 237.215 6.11469 237.215ZM14.3244 247.471C13.7911 247.471 13.3058 247.386 12.8684 247.215C12.4311 247.034 12.0524 246.783 11.7324 246.463C11.4231 246.133 11.1778 245.733 10.9964 245.263C10.8258 244.794 10.7404 244.266 10.7404 243.679C10.7404 243.018 10.8471 242.389 11.0604 241.791C11.2738 241.194 11.5724 240.671 11.9564 240.223C12.3511 239.775 12.8258 239.423 13.3804 239.167C13.9351 238.901 14.5538 238.767 15.2364 238.767C15.6951 238.767 16.1058 238.837 16.4684 238.975C16.8311 239.114 17.1351 239.295 17.3804 239.519C17.6364 239.743 17.8284 240.005 17.9564 240.303C18.0951 240.602 18.1644 240.911 18.1644 241.231C18.1644 241.829 18.0204 242.314 17.7324 242.687C17.4551 243.061 17.1031 243.359 16.6764 243.583C16.2498 243.797 15.7804 243.946 15.2684 244.031C14.7564 244.106 14.2711 244.143 13.8124 244.143C13.5244 244.143 13.2364 244.133 12.9484 244.111C12.6711 244.079 12.4258 244.047 12.2124 244.015C12.2978 244.719 12.5431 245.258 12.9484 245.631C13.3644 246.005 13.9031 246.191 14.5644 246.191C15.0978 246.191 15.5724 246.122 15.9884 245.983C16.4044 245.845 16.7564 245.706 17.0444 245.567L17.1724 246.847C16.8524 246.997 16.4471 247.141 15.9564 247.279C15.4764 247.407 14.9324 247.471 14.3244 247.471ZM15.1244 239.983C14.7511 239.983 14.3991 240.058 14.0684 240.207C13.7484 240.346 13.4604 240.543 13.2044 240.799C12.9591 241.055 12.7511 241.359 12.5804 241.711C12.4204 242.063 12.3084 242.447 12.2444 242.863C12.4898 242.917 12.7351 242.954 12.9804 242.975C13.2258 242.997 13.5031 243.007 13.8124 243.007C14.7191 243.007 15.4284 242.885 15.9404 242.639C16.4631 242.383 16.7244 241.951 16.7244 241.343C16.7244 240.97 16.5751 240.65 16.2764 240.383C15.9884 240.117 15.6044 239.983 15.1244 239.983ZM20.3177 241.295C20.3284 241.242 20.3337 241.183 20.3337 241.119C20.3444 241.045 20.3497 240.97 20.3497 240.895C20.3497 240.597 20.2644 240.389 20.0937 240.271C19.923 240.143 19.699 240.079 19.4217 240.079L19.9177 238.959C20.4937 238.959 20.931 239.093 21.2297 239.359C21.5284 239.626 21.6777 240.031 21.6777 240.575V240.895C21.987 240.127 22.3817 239.583 22.8617 239.263C23.3524 238.933 23.907 238.767 24.5257 238.767C24.771 238.767 24.979 238.789 25.1497 238.831C25.331 238.863 25.4804 238.906 25.5977 238.959L24.9577 240.367C24.8297 240.314 24.6964 240.277 24.5577 240.255C24.419 240.234 24.259 240.223 24.0777 240.223C23.7897 240.223 23.5017 240.298 23.2137 240.447C22.9257 240.586 22.6537 240.826 22.3977 241.167C22.1417 241.509 21.907 241.957 21.6937 242.511C21.4804 243.066 21.3044 243.754 21.1657 244.575L20.7017 247.279H19.2617L20.3177 241.295ZM33.3109 245.999C33.6096 245.999 33.9083 245.93 34.2069 245.791C34.5056 245.642 34.7829 245.429 35.0389 245.151C35.3056 244.874 35.5349 244.533 35.7269 244.127C35.9189 243.722 36.0629 243.258 36.1589 242.735L36.8149 238.959H38.2549L36.7989 247.375C36.6709 248.111 36.4736 248.709 36.2069 249.167C35.9403 249.637 35.6363 250.005 35.2949 250.271C34.9536 250.549 34.5909 250.735 34.2069 250.831C33.8229 250.938 33.4443 250.991 33.0709 250.991C32.3456 250.991 31.7269 250.842 31.2149 250.543C30.7136 250.255 30.3029 249.909 29.9829 249.503L31.1029 248.671C31.6256 249.386 32.3136 249.743 33.1669 249.743C33.7003 249.743 34.1696 249.546 34.5749 249.151C34.9803 248.757 35.2683 248.085 35.4389 247.135L35.7429 245.439C35.4229 245.951 35.0176 246.389 34.5269 246.751C34.0363 247.103 33.4709 247.279 32.8309 247.279C32.5109 247.279 32.2123 247.226 31.9349 247.119C31.6576 247.013 31.4123 246.858 31.1989 246.655C30.9856 246.453 30.8149 246.207 30.6869 245.919C30.5696 245.631 30.5109 245.306 30.5109 244.943C30.5109 244.826 30.5163 244.693 30.5269 244.543C30.5376 244.394 30.5536 244.234 30.5749 244.063L31.4389 238.959H32.8789L31.9989 244.031C31.9669 244.223 31.9509 244.405 31.9509 244.575C31.9509 245.055 32.0843 245.413 32.3509 245.647C32.6176 245.882 32.9376 245.999 33.3109 245.999ZM43.1757 246.191C43.6557 246.191 44.0824 246.101 44.4557 245.919C44.829 245.738 45.149 245.487 45.4157 245.167C45.6824 244.847 45.885 244.474 46.0237 244.047C46.1624 243.621 46.2317 243.157 46.2317 242.655C46.2317 242.293 46.173 241.951 46.0557 241.631C45.949 241.311 45.789 241.034 45.5757 240.799C45.373 240.565 45.1224 240.383 44.8237 240.255C44.525 240.117 44.1837 240.047 43.7997 240.047C43.3304 240.047 42.9037 240.138 42.5197 240.319C42.1464 240.501 41.8264 240.751 41.5597 241.071C41.293 241.391 41.0904 241.77 40.9517 242.207C40.813 242.634 40.7437 243.093 40.7437 243.583C40.7437 243.946 40.797 244.287 40.9037 244.607C41.0104 244.927 41.165 245.205 41.3677 245.439C41.581 245.674 41.837 245.861 42.1357 245.999C42.445 246.127 42.7917 246.191 43.1757 246.191ZM43.1277 247.471C42.5304 247.471 41.9917 247.381 41.5117 247.199C41.0424 247.007 40.6424 246.746 40.3117 246.415C39.981 246.085 39.725 245.69 39.5437 245.231C39.3624 244.762 39.2717 244.255 39.2717 243.711C39.2717 243.018 39.3784 242.373 39.5917 241.775C39.805 241.167 40.109 240.645 40.5037 240.207C40.909 239.759 41.3944 239.407 41.9597 239.151C42.525 238.895 43.1544 238.767 43.8477 238.767C44.4344 238.767 44.9677 238.863 45.4477 239.055C45.9277 239.237 46.333 239.493 46.6637 239.823C46.9944 240.154 47.2504 240.554 47.4317 241.023C47.613 241.482 47.7037 241.983 47.7037 242.527C47.7037 243.221 47.597 243.871 47.3837 244.479C47.1704 245.077 46.861 245.599 46.4557 246.047C46.061 246.485 45.581 246.831 45.0157 247.087C44.4504 247.343 43.821 247.471 43.1277 247.471ZM51.3931 247.471C51.0731 247.471 50.7691 247.418 50.4811 247.311C50.2037 247.205 49.9531 247.05 49.7291 246.847C49.5157 246.645 49.3451 246.399 49.2171 246.111C49.0997 245.823 49.0411 245.498 49.0411 245.135C49.0411 244.997 49.0464 244.858 49.0571 244.719C49.0677 244.57 49.0837 244.415 49.1051 244.255L50.0171 238.959H51.4571L50.5291 244.223C50.5077 244.33 50.4917 244.426 50.4811 244.511C50.4811 244.586 50.4811 244.671 50.4811 244.767C50.4811 245.247 50.6197 245.605 50.8971 245.839C51.1744 246.074 51.4997 246.191 51.8731 246.191C52.1717 246.191 52.4704 246.122 52.7691 245.983C53.0784 245.834 53.3611 245.626 53.6171 245.359C53.8731 245.093 54.0971 244.767 54.2891 244.383C54.4917 243.989 54.6357 243.541 54.7211 243.039L55.4411 238.959H56.8811L55.8251 245.023C55.8144 245.077 55.8037 245.141 55.7931 245.215C55.7931 245.279 55.7931 245.349 55.7931 245.423C55.7931 245.722 55.8784 245.935 56.0491 246.063C56.2197 246.181 56.4437 246.239 56.7211 246.239L56.2251 247.359C55.6491 247.359 55.2064 247.221 54.8971 246.943C54.5984 246.666 54.4491 246.223 54.4491 245.615V245.471C53.6704 246.805 52.6517 247.471 51.3931 247.471ZM59.4427 241.295C59.4534 241.242 59.4587 241.183 59.4587 241.119C59.4694 241.045 59.4747 240.97 59.4747 240.895C59.4747 240.597 59.3894 240.389 59.2187 240.271C59.048 240.143 58.824 240.079 58.5467 240.079L59.0427 238.959C59.6187 238.959 60.056 239.093 60.3547 239.359C60.6534 239.626 60.8027 240.031 60.8027 240.575V240.895C61.112 240.127 61.5067 239.583 61.9867 239.263C62.4774 238.933 63.032 238.767 63.6507 238.767C63.896 238.767 64.104 238.789 64.2747 238.831C64.456 238.863 64.6054 238.906 64.7227 238.959L64.0827 240.367C63.9547 240.314 63.8214 240.277 63.6827 240.255C63.544 240.234 63.384 240.223 63.2027 240.223C62.9147 240.223 62.6267 240.298 62.3387 240.447C62.0507 240.586 61.7787 240.826 61.5227 241.167C61.2667 241.509 61.032 241.957 60.8187 242.511C60.6054 243.066 60.4294 243.754 60.2907 244.575L59.8267 247.279H58.3867L59.4427 241.295ZM74.7079 238.767C75.3479 238.767 75.9026 238.831 76.3719 238.959C76.8519 239.087 77.2466 239.215 77.5559 239.343L76.1639 247.375C76.0359 248.111 75.8386 248.709 75.5719 249.167C75.3053 249.637 75.0013 250.005 74.6599 250.271C74.3186 250.549 73.9559 250.735 73.5719 250.831C73.1879 250.938 72.8093 250.991 72.4359 250.991C71.7106 250.991 71.0919 250.842 70.5799 250.543C70.0786 250.255 69.6679 249.909 69.3479 249.503L70.4679 248.671C70.9906 249.386 71.6786 249.743 72.5319 249.743C73.0653 249.743 73.5346 249.546 73.9399 249.151C74.3453 248.757 74.6333 248.085 74.8039 247.135L75.0759 245.567C74.7666 246.047 74.3933 246.453 73.9559 246.783C73.5186 247.114 73.0226 247.279 72.4679 247.279C72.0839 247.279 71.7106 247.21 71.3479 247.071C70.9853 246.922 70.6599 246.709 70.3719 246.431C70.0839 246.154 69.8546 245.807 69.6839 245.391C69.5133 244.975 69.4279 244.501 69.4279 243.967C69.4279 243.199 69.5613 242.495 69.8279 241.855C70.0946 241.215 70.4626 240.666 70.9319 240.207C71.4013 239.749 71.9559 239.397 72.5959 239.151C73.2466 238.895 73.9506 238.767 74.7079 238.767ZM70.8999 243.807C70.8999 244.17 70.9533 244.49 71.0599 244.767C71.1773 245.034 71.3266 245.263 71.5079 245.455C71.6893 245.637 71.8973 245.775 72.1319 245.871C72.3666 245.957 72.6066 245.999 72.8519 245.999C73.1506 245.999 73.4386 245.919 73.7159 245.759C74.0039 245.589 74.2653 245.354 74.4999 245.055C74.7453 244.746 74.9586 244.378 75.1399 243.951C75.3213 243.525 75.4599 243.045 75.5559 242.511L75.9719 240.191C75.7693 240.127 75.5559 240.079 75.3319 240.047C75.1079 240.005 74.8466 239.983 74.5479 239.983C74.0146 239.983 73.5239 240.085 73.0759 240.287C72.6279 240.479 72.2439 240.746 71.9239 241.087C71.6039 241.429 71.3533 241.834 71.1719 242.303C70.9906 242.762 70.8999 243.263 70.8999 243.807ZM79.9583 241.295C79.969 241.242 79.9743 241.183 79.9743 241.119C79.985 241.045 79.9903 240.97 79.9903 240.895C79.9903 240.597 79.905 240.389 79.7343 240.271C79.5636 240.143 79.3396 240.079 79.0623 240.079L79.5583 238.959C80.1343 238.959 80.5716 239.093 80.8703 239.359C81.169 239.626 81.3183 240.031 81.3183 240.575V240.895C81.6276 240.127 82.0223 239.583 82.5023 239.263C82.993 238.933 83.5476 238.767 84.1663 238.767C84.4116 238.767 84.6196 238.789 84.7903 238.831C84.9716 238.863 85.121 238.906 85.2383 238.959L84.5983 240.367C84.4703 240.314 84.337 240.277 84.1983 240.255C84.0596 240.234 83.8996 240.223 83.7183 240.223C83.4303 240.223 83.1423 240.298 82.8543 240.447C82.5663 240.586 82.2943 240.826 82.0383 241.167C81.7823 241.509 81.5476 241.957 81.3343 242.511C81.121 243.066 80.945 243.754 80.8063 244.575L80.3423 247.279H78.9023L79.9583 241.295ZM88.8944 246.191C89.3744 246.191 89.8011 246.101 90.1744 245.919C90.5478 245.738 90.8678 245.487 91.1344 245.167C91.4011 244.847 91.6038 244.474 91.7424 244.047C91.8811 243.621 91.9504 243.157 91.9504 242.655C91.9504 242.293 91.8918 241.951 91.7744 241.631C91.6678 241.311 91.5078 241.034 91.2944 240.799C91.0918 240.565 90.8411 240.383 90.5424 240.255C90.2438 240.117 89.9024 240.047 89.5184 240.047C89.0491 240.047 88.6224 240.138 88.2384 240.319C87.8651 240.501 87.5451 240.751 87.2784 241.071C87.0118 241.391 86.8091 241.77 86.6704 242.207C86.5318 242.634 86.4624 243.093 86.4624 243.583C86.4624 243.946 86.5158 244.287 86.6224 244.607C86.7291 244.927 86.8838 245.205 87.0864 245.439C87.2998 245.674 87.5558 245.861 87.8544 245.999C88.1638 246.127 88.5104 246.191 88.8944 246.191ZM88.8464 247.471C88.2491 247.471 87.7104 247.381 87.2304 247.199C86.7611 247.007 86.3611 246.746 86.0304 246.415C85.6998 246.085 85.4438 245.69 85.2624 245.231C85.0811 244.762 84.9904 244.255 84.9904 243.711C84.9904 243.018 85.0971 242.373 85.3104 241.775C85.5238 241.167 85.8278 240.645 86.2224 240.207C86.6278 239.759 87.1131 239.407 87.6784 239.151C88.2438 238.895 88.8731 238.767 89.5664 238.767C90.1531 238.767 90.6864 238.863 91.1664 239.055C91.6464 239.237 92.0518 239.493 92.3824 239.823C92.7131 240.154 92.9691 240.554 93.1504 241.023C93.3318 241.482 93.4224 241.983 93.4224 242.527C93.4224 243.221 93.3158 243.871 93.1024 244.479C92.8891 245.077 92.5798 245.599 92.1744 246.047C91.7798 246.485 91.2998 246.831 90.7344 247.087C90.1691 247.343 89.5398 247.471 88.8464 247.471ZM100.904 240.639C100.626 240.469 100.333 240.33 100.024 240.223C99.7251 240.106 99.3891 240.047 99.0158 240.047C98.5678 240.047 98.1625 240.138 97.7998 240.319C97.4371 240.501 97.1278 240.751 96.8718 241.071C96.6158 241.381 96.4185 241.749 96.2798 242.175C96.1411 242.602 96.0718 243.061 96.0718 243.551C96.0718 244.362 96.2745 245.007 96.6798 245.487C97.0851 245.957 97.6398 246.191 98.3438 246.191C98.7491 246.191 99.1065 246.143 99.4158 246.047C99.7251 245.951 100.008 245.839 100.264 245.711L100.44 246.975C100.173 247.093 99.8478 247.205 99.4638 247.311C99.0905 247.418 98.6371 247.471 98.1038 247.471C97.5811 247.471 97.1065 247.386 96.6798 247.215C96.2531 247.034 95.8851 246.778 95.5758 246.447C95.2665 246.117 95.0265 245.727 94.8558 245.279C94.6851 244.821 94.5998 244.309 94.5998 243.743C94.5998 243.071 94.7011 242.437 94.9038 241.839C95.1171 241.242 95.4211 240.714 95.8158 240.255C96.2105 239.797 96.6851 239.434 97.2398 239.167C97.7945 238.901 98.4238 238.767 99.1278 238.767C99.6291 238.767 100.072 238.831 100.456 238.959C100.84 239.077 101.186 239.226 101.496 239.407L100.904 240.639ZM105.309 247.471C104.775 247.471 104.29 247.386 103.853 247.215C103.415 247.034 103.037 246.783 102.717 246.463C102.407 246.133 102.162 245.733 101.981 245.263C101.81 244.794 101.725 244.266 101.725 243.679C101.725 243.018 101.831 242.389 102.045 241.791C102.258 241.194 102.557 240.671 102.941 240.223C103.335 239.775 103.81 239.423 104.365 239.167C104.919 238.901 105.538 238.767 106.221 238.767C106.679 238.767 107.09 238.837 107.453 238.975C107.815 239.114 108.119 239.295 108.365 239.519C108.621 239.743 108.813 240.005 108.941 240.303C109.079 240.602 109.149 240.911 109.149 241.231C109.149 241.829 109.005 242.314 108.717 242.687C108.439 243.061 108.087 243.359 107.661 243.583C107.234 243.797 106.765 243.946 106.253 244.031C105.741 244.106 105.255 244.143 104.797 244.143C104.509 244.143 104.221 244.133 103.933 244.111C103.655 244.079 103.41 244.047 103.197 244.015C103.282 244.719 103.527 245.258 103.933 245.631C104.349 246.005 104.887 246.191 105.549 246.191C106.082 246.191 106.557 246.122 106.973 245.983C107.389 245.845 107.741 245.706 108.029 245.567L108.157 246.847C107.837 246.997 107.431 247.141 106.941 247.279C106.461 247.407 105.917 247.471 105.309 247.471ZM106.109 239.983C105.735 239.983 105.383 240.058 105.053 240.207C104.733 240.346 104.445 240.543 104.189 240.799C103.943 241.055 103.735 241.359 103.565 241.711C103.405 242.063 103.293 242.447 103.229 242.863C103.474 242.917 103.719 242.954 103.965 242.975C104.21 242.997 104.487 243.007 104.797 243.007C105.703 243.007 106.413 242.885 106.925 242.639C107.447 242.383 107.709 241.951 107.709 241.343C107.709 240.97 107.559 240.65 107.261 240.383C106.973 240.117 106.589 239.983 106.109 239.983ZM111.302 241.295C111.313 241.242 111.318 241.183 111.318 241.119C111.329 241.045 111.334 240.97 111.334 240.895C111.334 240.597 111.249 240.389 111.078 240.271C110.907 240.143 110.683 240.079 110.406 240.079L110.902 238.959C111.478 238.959 111.915 239.093 112.214 239.359C112.513 239.626 112.662 240.031 112.662 240.575V240.895C112.971 240.127 113.366 239.583 113.846 239.263C114.337 238.933 114.891 238.767 115.51 238.767C115.755 238.767 115.963 238.789 116.134 238.831C116.315 238.863 116.465 238.906 116.582 238.959L115.942 240.367C115.814 240.314 115.681 240.277 115.542 240.255C115.403 240.234 115.243 240.223 115.062 240.223C114.774 240.223 114.486 240.298 114.198 240.447C113.91 240.586 113.638 240.826 113.382 241.167C113.126 241.509 112.891 241.957 112.678 242.511C112.465 243.066 112.289 243.754 112.15 244.575L111.686 247.279H110.246L111.302 241.295ZM117.93 247.279H116.49L117.946 238.959H119.386L117.93 247.279ZM119.002 237.535C118.704 237.535 118.474 237.45 118.314 237.279C118.165 237.098 118.09 236.89 118.09 236.655C118.09 236.314 118.197 236.042 118.41 235.839C118.624 235.626 118.89 235.519 119.21 235.519C119.509 235.519 119.733 235.61 119.882 235.791C120.042 235.962 120.122 236.165 120.122 236.399C120.122 236.741 120.016 237.018 119.802 237.231C119.589 237.434 119.322 237.535 119.002 237.535ZM124.153 247.471C123.619 247.471 123.134 247.386 122.697 247.215C122.259 247.034 121.881 246.783 121.561 246.463C121.251 246.133 121.006 245.733 120.825 245.263C120.654 244.794 120.569 244.266 120.569 243.679C120.569 243.018 120.675 242.389 120.889 241.791C121.102 241.194 121.401 240.671 121.785 240.223C122.179 239.775 122.654 239.423 123.209 239.167C123.763 238.901 124.382 238.767 125.065 238.767C125.523 238.767 125.934 238.837 126.297 238.975C126.659 239.114 126.963 239.295 127.209 239.519C127.465 239.743 127.657 240.005 127.785 240.303C127.923 240.602 127.993 240.911 127.993 241.231C127.993 241.829 127.849 242.314 127.561 242.687C127.283 243.061 126.931 243.359 126.505 243.583C126.078 243.797 125.609 243.946 125.097 244.031C124.585 244.106 124.099 244.143 123.641 244.143C123.353 244.143 123.065 244.133 122.777 244.111C122.499 244.079 122.254 244.047 122.041 244.015C122.126 244.719 122.371 245.258 122.777 245.631C123.193 246.005 123.731 246.191 124.393 246.191C124.926 246.191 125.401 246.122 125.817 245.983C126.233 245.845 126.585 245.706 126.873 245.567L127.001 246.847C126.681 246.997 126.275 247.141 125.785 247.279C125.305 247.407 124.761 247.471 124.153 247.471ZM124.953 239.983C124.579 239.983 124.227 240.058 123.897 240.207C123.577 240.346 123.289 240.543 123.033 240.799C122.787 241.055 122.579 241.359 122.409 241.711C122.249 242.063 122.137 242.447 122.073 242.863C122.318 242.917 122.563 242.954 122.809 242.975C123.054 242.997 123.331 243.007 123.641 243.007C124.547 243.007 125.257 242.885 125.769 242.639C126.291 242.383 126.553 241.951 126.553 241.343C126.553 240.97 126.403 240.65 126.105 240.383C125.817 240.117 125.433 239.983 124.953 239.983ZM134.674 240.767C134.364 240.554 134.018 240.367 133.634 240.207C133.26 240.047 132.834 239.967 132.354 239.967C131.842 239.967 131.447 240.053 131.17 240.223C130.903 240.394 130.77 240.618 130.77 240.895C130.77 241.023 130.791 241.141 130.834 241.247C130.887 241.354 130.972 241.466 131.09 241.583C131.218 241.69 131.388 241.807 131.602 241.935C131.815 242.063 132.087 242.213 132.418 242.383C133.154 242.757 133.692 243.135 134.034 243.519C134.386 243.893 134.562 244.367 134.562 244.943C134.562 245.37 134.476 245.743 134.306 246.063C134.135 246.373 133.895 246.634 133.586 246.847C133.287 247.05 132.935 247.205 132.53 247.311C132.124 247.418 131.687 247.471 131.218 247.471C130.567 247.471 129.991 247.391 129.49 247.231C128.999 247.061 128.572 246.842 128.21 246.575L129.026 245.391C129.314 245.626 129.65 245.823 130.034 245.983C130.428 246.143 130.866 246.223 131.346 246.223C131.89 246.223 132.311 246.122 132.61 245.919C132.919 245.717 133.074 245.466 133.074 245.167C133.074 245.029 133.047 244.901 132.994 244.783C132.951 244.655 132.866 244.527 132.738 244.399C132.61 244.271 132.434 244.143 132.21 244.015C131.996 243.877 131.724 243.722 131.394 243.551C130.988 243.349 130.652 243.157 130.386 242.975C130.13 242.783 129.922 242.586 129.762 242.383C129.612 242.181 129.506 241.967 129.442 241.743C129.378 241.509 129.346 241.253 129.346 240.975C129.346 240.655 129.42 240.362 129.57 240.095C129.719 239.818 129.927 239.583 130.194 239.391C130.46 239.199 130.78 239.05 131.154 238.943C131.527 238.826 131.938 238.767 132.386 238.767C132.983 238.767 133.516 238.847 133.986 239.007C134.466 239.157 134.887 239.338 135.25 239.551L134.674 240.767ZM142.196 247.279H140.756L142.212 238.959H143.652L142.196 247.279ZM143.268 237.535C142.969 237.535 142.74 237.45 142.58 237.279C142.431 237.098 142.356 236.89 142.356 236.655C142.356 236.314 142.463 236.042 142.676 235.839C142.889 235.626 143.156 235.519 143.476 235.519C143.775 235.519 143.999 235.61 144.148 235.791C144.308 235.962 144.388 236.165 144.388 236.399C144.388 236.741 144.281 237.018 144.068 237.231C143.855 237.434 143.588 237.535 143.268 237.535ZM150.066 240.031C149.789 240.031 149.485 240.111 149.154 240.271C148.834 240.421 148.52 240.655 148.21 240.975C147.912 241.295 147.64 241.706 147.394 242.207C147.149 242.698 146.968 243.285 146.85 243.967L146.274 247.279H144.834L146.29 238.959H147.682L147.33 240.879C147.661 240.239 148.104 239.727 148.658 239.343C149.213 238.959 149.805 238.767 150.434 238.767C150.797 238.767 151.128 238.826 151.426 238.943C151.725 239.061 151.976 239.226 152.178 239.439C152.392 239.642 152.552 239.882 152.658 240.159C152.776 240.437 152.834 240.735 152.834 241.055C152.834 241.333 152.802 241.669 152.738 242.063L151.826 247.279H150.386L151.266 242.303C151.32 242.047 151.352 241.861 151.362 241.743C151.373 241.626 151.378 241.509 151.378 241.391C151.378 240.975 151.256 240.645 151.01 240.399C150.776 240.154 150.461 240.031 150.066 240.031ZM159.053 243.999C159.053 243.231 159.181 242.527 159.437 241.887C159.704 241.237 160.072 240.682 160.541 240.223C161.01 239.765 161.57 239.407 162.221 239.151C162.872 238.895 163.581 238.767 164.349 238.767C164.978 238.767 165.528 238.831 165.997 238.959C166.477 239.087 166.872 239.215 167.181 239.343L166.173 245.023C166.162 245.077 166.152 245.141 166.141 245.215C166.141 245.279 166.141 245.349 166.141 245.423C166.141 245.722 166.226 245.935 166.397 246.063C166.568 246.181 166.792 246.239 167.069 246.239L166.573 247.359C165.997 247.359 165.554 247.221 165.245 246.943C164.946 246.666 164.797 246.223 164.797 245.615C164.498 246.127 164.12 246.565 163.661 246.927C163.213 247.29 162.685 247.471 162.077 247.471C161.682 247.471 161.304 247.391 160.941 247.231C160.578 247.071 160.253 246.842 159.965 246.543C159.688 246.245 159.464 245.882 159.293 245.455C159.133 245.018 159.053 244.533 159.053 243.999ZM165.597 240.191C165.394 240.127 165.181 240.079 164.957 240.047C164.744 240.005 164.482 239.983 164.173 239.983C163.618 239.983 163.117 240.079 162.669 240.271C162.221 240.463 161.837 240.73 161.517 241.071C161.197 241.413 160.952 241.818 160.781 242.287C160.61 242.757 160.525 243.269 160.525 243.823C160.525 244.207 160.578 244.549 160.685 244.847C160.802 245.135 160.952 245.381 161.133 245.583C161.314 245.786 161.517 245.941 161.741 246.047C161.976 246.143 162.216 246.191 162.461 246.191C162.781 246.191 163.085 246.106 163.373 245.935C163.672 245.765 163.938 245.525 164.173 245.215C164.408 244.895 164.61 244.522 164.781 244.095C164.952 243.658 165.08 243.183 165.165 242.671L165.597 240.191ZM174.346 240.767C174.036 240.554 173.69 240.367 173.306 240.207C172.932 240.047 172.506 239.967 172.026 239.967C171.514 239.967 171.119 240.053 170.842 240.223C170.575 240.394 170.442 240.618 170.442 240.895C170.442 241.023 170.463 241.141 170.506 241.247C170.559 241.354 170.644 241.466 170.762 241.583C170.89 241.69 171.06 241.807 171.274 241.935C171.487 242.063 171.759 242.213 172.09 242.383C172.826 242.757 173.364 243.135 173.706 243.519C174.058 243.893 174.234 244.367 174.234 244.943C174.234 245.37 174.148 245.743 173.978 246.063C173.807 246.373 173.567 246.634 173.258 246.847C172.959 247.05 172.607 247.205 172.202 247.311C171.796 247.418 171.359 247.471 170.89 247.471C170.239 247.471 169.663 247.391 169.162 247.231C168.671 247.061 168.244 246.842 167.882 246.575L168.698 245.391C168.986 245.626 169.322 245.823 169.706 245.983C170.1 246.143 170.538 246.223 171.018 246.223C171.562 246.223 171.983 246.122 172.282 245.919C172.591 245.717 172.746 245.466 172.746 245.167C172.746 245.029 172.719 244.901 172.666 244.783C172.623 244.655 172.538 244.527 172.41 244.399C172.282 244.271 172.106 244.143 171.882 244.015C171.668 243.877 171.396 243.722 171.066 243.551C170.66 243.349 170.324 243.157 170.058 242.975C169.802 242.783 169.594 242.586 169.434 242.383C169.284 242.181 169.178 241.967 169.114 241.743C169.05 241.509 169.018 241.253 169.018 240.975C169.018 240.655 169.092 240.362 169.242 240.095C169.391 239.818 169.599 239.583 169.866 239.391C170.132 239.199 170.452 239.05 170.826 238.943C171.199 238.826 171.61 238.767 172.058 238.767C172.655 238.767 173.188 238.847 173.658 239.007C174.138 239.157 174.559 239.338 174.922 239.551L174.346 240.767ZM183.724 239.263H186.188L185.964 240.511H183.5L182.092 248.431C182.007 248.901 181.884 249.295 181.724 249.615C181.564 249.946 181.372 250.213 181.148 250.415C180.924 250.618 180.668 250.762 180.38 250.847C180.092 250.943 179.783 250.991 179.452 250.991C179.1 250.991 178.78 250.943 178.492 250.847C178.193 250.751 177.932 250.618 177.708 250.447L178.284 249.263C178.433 249.413 178.609 249.53 178.812 249.615C179.004 249.701 179.223 249.743 179.468 249.743C179.756 249.743 180.001 249.642 180.204 249.439C180.417 249.237 180.567 248.911 180.652 248.463L182.06 240.511H180.78L181.004 239.263H182.284L182.524 237.983C182.705 237.002 183.052 236.303 183.564 235.887C184.076 235.461 184.732 235.247 185.532 235.247C185.969 235.247 186.375 235.306 186.748 235.423C187.121 235.53 187.457 235.663 187.756 235.823L187.196 237.039C186.951 236.911 186.695 236.794 186.428 236.687C186.172 236.581 185.868 236.527 185.516 236.527C185.121 236.527 184.785 236.645 184.508 236.879C184.231 237.103 184.049 237.455 183.964 237.935L183.724 239.263ZM186.147 243.999C186.147 243.231 186.275 242.527 186.531 241.887C186.797 241.237 187.165 240.682 187.635 240.223C188.104 239.765 188.664 239.407 189.315 239.151C189.965 238.895 190.675 238.767 191.443 238.767C192.072 238.767 192.621 238.831 193.091 238.959C193.571 239.087 193.965 239.215 194.275 239.343L193.267 245.023C193.256 245.077 193.245 245.141 193.235 245.215C193.235 245.279 193.235 245.349 193.235 245.423C193.235 245.722 193.32 245.935 193.491 246.063C193.661 246.181 193.885 246.239 194.163 246.239L193.667 247.359C193.091 247.359 192.648 247.221 192.339 246.943C192.04 246.666 191.891 246.223 191.891 245.615C191.592 246.127 191.213 246.565 190.755 246.927C190.307 247.29 189.779 247.471 189.171 247.471C188.776 247.471 188.397 247.391 188.035 247.231C187.672 247.071 187.347 246.842 187.059 246.543C186.781 246.245 186.557 245.882 186.387 245.455C186.227 245.018 186.147 244.533 186.147 243.999ZM192.691 240.191C192.488 240.127 192.275 240.079 192.051 240.047C191.837 240.005 191.576 239.983 191.267 239.983C190.712 239.983 190.211 240.079 189.763 240.271C189.315 240.463 188.931 240.73 188.611 241.071C188.291 241.413 188.045 241.818 187.875 242.287C187.704 242.757 187.619 243.269 187.619 243.823C187.619 244.207 187.672 244.549 187.779 244.847C187.896 245.135 188.045 245.381 188.227 245.583C188.408 245.786 188.611 245.941 188.835 246.047C189.069 246.143 189.309 246.191 189.555 246.191C189.875 246.191 190.179 246.106 190.467 245.935C190.765 245.765 191.032 245.525 191.267 245.215C191.501 244.895 191.704 244.522 191.875 244.095C192.045 243.658 192.173 243.183 192.259 242.671L192.691 240.191ZM201.439 240.767C201.13 240.554 200.783 240.367 200.399 240.207C200.026 240.047 199.599 239.967 199.119 239.967C198.607 239.967 198.213 240.053 197.935 240.223C197.669 240.394 197.535 240.618 197.535 240.895C197.535 241.023 197.557 241.141 197.599 241.247C197.653 241.354 197.738 241.466 197.855 241.583C197.983 241.69 198.154 241.807 198.367 241.935C198.581 242.063 198.853 242.213 199.183 242.383C199.919 242.757 200.458 243.135 200.799 243.519C201.151 243.893 201.327 244.367 201.327 244.943C201.327 245.37 201.242 245.743 201.071 246.063C200.901 246.373 200.661 246.634 200.351 246.847C200.053 247.05 199.701 247.205 199.295 247.311C198.89 247.418 198.453 247.471 197.983 247.471C197.333 247.471 196.757 247.391 196.255 247.231C195.765 247.061 195.338 246.842 194.975 246.575L195.791 245.391C196.079 245.626 196.415 245.823 196.799 245.983C197.194 246.143 197.631 246.223 198.111 246.223C198.655 246.223 199.077 246.122 199.375 245.919C199.685 245.717 199.839 245.466 199.839 245.167C199.839 245.029 199.813 244.901 199.759 244.783C199.717 244.655 199.631 244.527 199.503 244.399C199.375 244.271 199.199 244.143 198.975 244.015C198.762 243.877 198.49 243.722 198.159 243.551C197.754 243.349 197.418 243.157 197.151 242.975C196.895 242.783 196.687 242.586 196.527 242.383C196.378 242.181 196.271 241.967 196.207 241.743C196.143 241.509 196.111 241.253 196.111 240.975C196.111 240.655 196.186 240.362 196.335 240.095C196.485 239.818 196.693 239.583 196.959 239.391C197.226 239.199 197.546 239.05 197.919 238.943C198.293 238.826 198.703 238.767 199.151 238.767C199.749 238.767 200.282 238.847 200.751 239.007C201.231 239.157 201.653 239.338 202.015 239.551L201.439 240.767ZM203.013 239.263H204.485L205.253 236.639H206.357L205.893 239.263H208.197L207.989 240.511H205.669L204.997 244.399C204.954 244.613 204.933 244.815 204.933 245.007C204.933 245.381 205.039 245.674 205.253 245.887C205.477 246.09 205.775 246.191 206.149 246.191C206.458 246.191 206.714 246.149 206.917 246.063C207.13 245.967 207.327 245.871 207.509 245.775L207.685 247.023C207.482 247.141 207.226 247.242 206.917 247.327C206.618 247.423 206.282 247.471 205.909 247.471C205.61 247.471 205.317 247.423 205.029 247.327C204.741 247.242 204.485 247.109 204.261 246.927C204.037 246.735 203.855 246.49 203.717 246.191C203.578 245.893 203.509 245.535 203.509 245.119C203.509 245.002 203.514 244.885 203.525 244.767C203.535 244.639 203.551 244.495 203.573 244.335L204.229 240.511H202.805L203.013 239.263ZM213.772 243.999C213.772 243.231 213.9 242.527 214.156 241.887C214.422 241.237 214.79 240.682 215.26 240.223C215.729 239.765 216.289 239.407 216.94 239.151C217.59 238.895 218.3 238.767 219.068 238.767C219.697 238.767 220.246 238.831 220.716 238.959C221.196 239.087 221.59 239.215 221.9 239.343L220.892 245.023C220.881 245.077 220.87 245.141 220.86 245.215C220.86 245.279 220.86 245.349 220.86 245.423C220.86 245.722 220.945 245.935 221.116 246.063C221.286 246.181 221.51 246.239 221.788 246.239L221.292 247.359C220.716 247.359 220.273 247.221 219.964 246.943C219.665 246.666 219.516 246.223 219.516 245.615C219.217 246.127 218.838 246.565 218.38 246.927C217.932 247.29 217.404 247.471 216.796 247.471C216.401 247.471 216.022 247.391 215.66 247.231C215.297 247.071 214.972 246.842 214.684 246.543C214.406 246.245 214.182 245.882 214.012 245.455C213.852 245.018 213.772 244.533 213.772 243.999ZM220.316 240.191C220.113 240.127 219.9 240.079 219.676 240.047C219.462 240.005 219.201 239.983 218.892 239.983C218.337 239.983 217.836 240.079 217.388 240.271C216.94 240.463 216.556 240.73 216.236 241.071C215.916 241.413 215.67 241.818 215.5 242.287C215.329 242.757 215.244 243.269 215.244 243.823C215.244 244.207 215.297 244.549 215.404 244.847C215.521 245.135 215.67 245.381 215.852 245.583C216.033 245.786 216.236 245.941 216.46 246.047C216.694 246.143 216.934 246.191 217.18 246.191C217.5 246.191 217.804 246.106 218.092 245.935C218.39 245.765 218.657 245.525 218.892 245.215C219.126 244.895 219.329 244.522 219.5 244.095C219.67 243.658 219.798 243.183 219.884 242.671L220.316 240.191ZM229.064 240.767C228.755 240.554 228.408 240.367 228.024 240.207C227.651 240.047 227.224 239.967 226.744 239.967C226.232 239.967 225.838 240.053 225.56 240.223C225.294 240.394 225.16 240.618 225.16 240.895C225.16 241.023 225.182 241.141 225.224 241.247C225.278 241.354 225.363 241.466 225.48 241.583C225.608 241.69 225.779 241.807 225.992 241.935C226.206 242.063 226.478 242.213 226.808 242.383C227.544 242.757 228.083 243.135 228.424 243.519C228.776 243.893 228.952 244.367 228.952 244.943C228.952 245.37 228.867 245.743 228.696 246.063C228.526 246.373 228.286 246.634 227.976 246.847C227.678 247.05 227.326 247.205 226.92 247.311C226.515 247.418 226.078 247.471 225.608 247.471C224.958 247.471 224.382 247.391 223.88 247.231C223.39 247.061 222.963 246.842 222.6 246.575L223.416 245.391C223.704 245.626 224.04 245.823 224.424 245.983C224.819 246.143 225.256 246.223 225.736 246.223C226.28 246.223 226.702 246.122 227 245.919C227.31 245.717 227.464 245.466 227.464 245.167C227.464 245.029 227.438 244.901 227.384 244.783C227.342 244.655 227.256 244.527 227.128 244.399C227 244.271 226.824 244.143 226.6 244.015C226.387 243.877 226.115 243.722 225.784 243.551C225.379 243.349 225.043 243.157 224.776 242.975C224.52 242.783 224.312 242.586 224.152 242.383C224.003 242.181 223.896 241.967 223.832 241.743C223.768 241.509 223.736 241.253 223.736 240.975C223.736 240.655 223.811 240.362 223.96 240.095C224.11 239.818 224.318 239.583 224.584 239.391C224.851 239.199 225.171 239.05 225.544 238.943C225.918 238.826 226.328 238.767 226.776 238.767C227.374 238.767 227.907 238.847 228.376 239.007C228.856 239.157 229.278 239.338 229.64 239.551L229.064 240.767ZM239.051 246.191C239.531 246.191 239.957 246.101 240.331 245.919C240.704 245.738 241.024 245.487 241.291 245.167C241.557 244.847 241.76 244.474 241.899 244.047C242.037 243.621 242.107 243.157 242.107 242.655C242.107 242.293 242.048 241.951 241.931 241.631C241.824 241.311 241.664 241.034 241.451 240.799C241.248 240.565 240.997 240.383 240.699 240.255C240.4 240.117 240.059 240.047 239.675 240.047C239.205 240.047 238.779 240.138 238.395 240.319C238.021 240.501 237.701 240.751 237.435 241.071C237.168 241.391 236.965 241.77 236.827 242.207C236.688 242.634 236.619 243.093 236.619 243.583C236.619 243.946 236.672 244.287 236.779 244.607C236.885 244.927 237.04 245.205 237.243 245.439C237.456 245.674 237.712 245.861 238.011 245.999C238.32 246.127 238.667 246.191 239.051 246.191ZM239.003 247.471C238.405 247.471 237.867 247.381 237.387 247.199C236.917 247.007 236.517 246.746 236.187 246.415C235.856 246.085 235.6 245.69 235.419 245.231C235.237 244.762 235.147 244.255 235.147 243.711C235.147 243.018 235.253 242.373 235.467 241.775C235.68 241.167 235.984 240.645 236.379 240.207C236.784 239.759 237.269 239.407 237.835 239.151C238.4 238.895 239.029 238.767 239.723 238.767C240.309 238.767 240.843 238.863 241.323 239.055C241.803 239.237 242.208 239.493 242.539 239.823C242.869 240.154 243.125 240.554 243.307 241.023C243.488 241.482 243.579 241.983 243.579 242.527C243.579 243.221 243.472 243.871 243.259 244.479C243.045 245.077 242.736 245.599 242.331 246.047C241.936 246.485 241.456 246.831 240.891 247.087C240.325 247.343 239.696 247.471 239.003 247.471ZM249.988 240.031C249.711 240.031 249.407 240.111 249.076 240.271C248.756 240.421 248.441 240.655 248.132 240.975C247.833 241.295 247.561 241.706 247.316 242.207C247.071 242.698 246.889 243.285 246.772 243.967L246.196 247.279H244.756L246.212 238.959H247.604L247.252 240.879C247.583 240.239 248.025 239.727 248.58 239.343C249.135 238.959 249.727 238.767 250.356 238.767C250.719 238.767 251.049 238.826 251.348 238.943C251.647 239.061 251.897 239.226 252.1 239.439C252.313 239.642 252.473 239.882 252.58 240.159C252.697 240.437 252.756 240.735 252.756 241.055C252.756 241.333 252.724 241.669 252.66 242.063L251.748 247.279H250.308L251.188 242.303C251.241 242.047 251.273 241.861 251.284 241.743C251.295 241.626 251.3 241.509 251.3 241.391C251.3 240.975 251.177 240.645 250.932 240.399C250.697 240.154 250.383 240.031 249.988 240.031ZM257.762 247.471C257.229 247.471 256.743 247.386 256.306 247.215C255.869 247.034 255.49 246.783 255.17 246.463C254.861 246.133 254.615 245.733 254.434 245.263C254.263 244.794 254.178 244.266 254.178 243.679C254.178 243.018 254.285 242.389 254.498 241.791C254.711 241.194 255.01 240.671 255.394 240.223C255.789 239.775 256.263 239.423 256.818 239.167C257.373 238.901 257.991 238.767 258.674 238.767C259.133 238.767 259.543 238.837 259.906 238.975C260.269 239.114 260.573 239.295 260.818 239.519C261.074 239.743 261.266 240.005 261.394 240.303C261.533 240.602 261.602 240.911 261.602 241.231C261.602 241.829 261.458 242.314 261.17 242.687C260.893 243.061 260.541 243.359 260.114 243.583C259.687 243.797 259.218 243.946 258.706 244.031C258.194 244.106 257.709 244.143 257.25 244.143C256.962 244.143 256.674 244.133 256.386 244.111C256.109 244.079 255.863 244.047 255.65 244.015C255.735 244.719 255.981 245.258 256.386 245.631C256.802 246.005 257.341 246.191 258.002 246.191C258.535 246.191 259.01 246.122 259.426 245.983C259.842 245.845 260.194 245.706 260.482 245.567L260.61 246.847C260.29 246.997 259.885 247.141 259.394 247.279C258.914 247.407 258.37 247.471 257.762 247.471ZM258.562 239.983C258.189 239.983 257.837 240.058 257.506 240.207C257.186 240.346 256.898 240.543 256.642 240.799C256.397 241.055 256.189 241.359 256.018 241.711C255.858 242.063 255.746 242.447 255.682 242.863C255.927 242.917 256.173 242.954 256.418 242.975C256.663 242.997 256.941 243.007 257.25 243.007C258.157 243.007 258.866 242.885 259.378 242.639C259.901 242.383 260.162 241.951 260.162 241.343C260.162 240.97 260.013 240.65 259.714 240.383C259.426 240.117 259.042 239.983 258.562 239.983ZM273.8 241.391C273.8 240.986 273.677 240.661 273.432 240.415C273.197 240.159 272.888 240.031 272.504 240.031C272.216 240.031 271.907 240.106 271.576 240.255C271.256 240.405 270.941 240.639 270.632 240.959C270.333 241.269 270.061 241.663 269.816 242.143C269.581 242.623 269.405 243.199 269.288 243.871L268.696 247.279H267.256L269.336 235.439H270.776L269.848 240.703C270.179 240.117 270.611 239.647 271.144 239.295C271.677 238.943 272.248 238.767 272.856 238.767C273.219 238.767 273.549 238.826 273.848 238.943C274.147 239.061 274.397 239.226 274.6 239.439C274.813 239.642 274.973 239.882 275.08 240.159C275.197 240.437 275.256 240.735 275.256 241.055C275.256 241.333 275.224 241.669 275.16 242.063L274.248 247.279H272.808L273.688 242.303C273.741 242.047 273.773 241.861 273.784 241.743C273.795 241.626 273.8 241.509 273.8 241.391ZM280.582 246.191C281.062 246.191 281.489 246.101 281.862 245.919C282.235 245.738 282.555 245.487 282.822 245.167C283.089 244.847 283.291 244.474 283.43 244.047C283.569 243.621 283.638 243.157 283.638 242.655C283.638 242.293 283.579 241.951 283.462 241.631C283.355 241.311 283.195 241.034 282.982 240.799C282.779 240.565 282.529 240.383 282.23 240.255C281.931 240.117 281.59 240.047 281.206 240.047C280.737 240.047 280.31 240.138 279.926 240.319C279.553 240.501 279.233 240.751 278.966 241.071C278.699 241.391 278.497 241.77 278.358 242.207C278.219 242.634 278.15 243.093 278.15 243.583C278.15 243.946 278.203 244.287 278.31 244.607C278.417 244.927 278.571 245.205 278.774 245.439C278.987 245.674 279.243 245.861 279.542 245.999C279.851 246.127 280.198 246.191 280.582 246.191ZM280.534 247.471C279.937 247.471 279.398 247.381 278.918 247.199C278.449 247.007 278.049 246.746 277.718 246.415C277.387 246.085 277.131 245.69 276.95 245.231C276.769 244.762 276.678 244.255 276.678 243.711C276.678 243.018 276.785 242.373 276.998 241.775C277.211 241.167 277.515 240.645 277.91 240.207C278.315 239.759 278.801 239.407 279.366 239.151C279.931 238.895 280.561 238.767 281.254 238.767C281.841 238.767 282.374 238.863 282.854 239.055C283.334 239.237 283.739 239.493 284.07 239.823C284.401 240.154 284.657 240.554 284.838 241.023C285.019 241.482 285.11 241.983 285.11 242.527C285.11 243.221 285.003 243.871 284.79 244.479C284.577 245.077 284.267 245.599 283.862 246.047C283.467 246.485 282.987 246.831 282.422 247.087C281.857 247.343 281.227 247.471 280.534 247.471ZM288.799 247.471C288.479 247.471 288.175 247.418 287.887 247.311C287.61 247.205 287.359 247.05 287.135 246.847C286.922 246.645 286.751 246.399 286.623 246.111C286.506 245.823 286.447 245.498 286.447 245.135C286.447 244.997 286.453 244.858 286.463 244.719C286.474 244.57 286.49 244.415 286.511 244.255L287.423 238.959H288.863L287.935 244.223C287.914 244.33 287.898 244.426 287.887 244.511C287.887 244.586 287.887 244.671 287.887 244.767C287.887 245.247 288.026 245.605 288.303 245.839C288.581 246.074 288.906 246.191 289.279 246.191C289.578 246.191 289.877 246.122 290.175 245.983C290.485 245.834 290.767 245.626 291.023 245.359C291.279 245.093 291.503 244.767 291.695 244.383C291.898 243.989 292.042 243.541 292.127 243.039L292.847 238.959H294.287L293.231 245.023C293.221 245.077 293.21 245.141 293.199 245.215C293.199 245.279 293.199 245.349 293.199 245.423C293.199 245.722 293.285 245.935 293.455 246.063C293.626 246.181 293.85 246.239 294.127 246.239L293.631 247.359C293.055 247.359 292.613 247.221 292.303 246.943C292.005 246.666 291.855 246.223 291.855 245.615V245.471C291.077 246.805 290.058 247.471 288.799 247.471ZM296.849 241.295C296.86 241.242 296.865 241.183 296.865 241.119C296.876 241.045 296.881 240.97 296.881 240.895C296.881 240.597 296.796 240.389 296.625 240.271C296.454 240.143 296.23 240.079 295.953 240.079L296.449 238.959C297.025 238.959 297.462 239.093 297.761 239.359C298.06 239.626 298.209 240.031 298.209 240.575V240.895C298.518 240.127 298.913 239.583 299.393 239.263C299.884 238.933 300.438 238.767 301.057 238.767C301.302 238.767 301.51 238.789 301.681 238.831C301.862 238.863 302.012 238.906 302.129 238.959L301.489 240.367C301.361 240.314 301.228 240.277 301.089 240.255C300.95 240.234 300.79 240.223 300.609 240.223C300.321 240.223 300.033 240.298 299.745 240.447C299.457 240.586 299.185 240.826 298.929 241.167C298.673 241.509 298.438 241.957 298.225 242.511C298.012 243.066 297.836 243.754 297.697 244.575L297.233 247.279H295.793L296.849 241.295Z" fill="#FCFCFC" fill-opacity="0.7"/>
<path d="M46.2485 89.544L50.9525 89.064L53.5445 118.152L65.2565 92.904H70.9685L73.6565 118.152L86.4725 89.208L90.5045 91.08L75.7205 123H70.0565L67.3205 97.752L55.5605 123H49.8965L46.2485 89.544ZM98.8093 123.576C97.2093 123.576 95.7533 123.32 94.4413 122.808C93.1293 122.264 91.9933 121.512 91.0333 120.552C90.1053 119.56 89.3693 118.36 88.8253 116.952C88.3133 115.544 88.0573 113.96 88.0573 112.2C88.0573 110.216 88.3773 108.328 89.0173 106.536C89.6573 104.744 90.5533 103.176 91.7053 101.832C92.8893 100.488 94.3133 99.432 95.9773 98.664C97.6413 97.864 99.4973 97.464 101.545 97.464C102.921 97.464 104.153 97.672 105.241 98.088C106.329 98.504 107.241 99.048 107.977 99.72C108.745 100.392 109.321 101.176 109.705 102.072C110.121 102.968 110.329 103.896 110.329 104.856C110.329 106.648 109.897 108.104 109.033 109.224C108.201 110.344 107.145 111.24 105.865 111.912C104.585 112.552 103.177 113 101.641 113.256C100.105 113.48 98.6493 113.592 97.2733 113.592C96.4093 113.592 95.5453 113.56 94.6813 113.496C93.8493 113.4 93.1133 113.304 92.4733 113.208C92.7293 115.32 93.4653 116.936 94.6813 118.056C95.9293 119.176 97.5453 119.736 99.5293 119.736C101.129 119.736 102.553 119.528 103.801 119.112C105.049 118.696 106.105 118.28 106.969 117.864L107.353 121.704C106.393 122.152 105.177 122.584 103.705 123C102.265 123.384 100.633 123.576 98.8093 123.576ZM101.209 101.112C100.089 101.112 99.0333 101.336 98.0413 101.784C97.0813 102.2 96.2173 102.792 95.4493 103.56C94.7133 104.328 94.0893 105.24 93.5773 106.296C93.0973 107.352 92.7613 108.504 92.5693 109.752C93.3053 109.912 94.0413 110.024 94.7773 110.088C95.5133 110.152 96.3453 110.184 97.2733 110.184C99.9933 110.184 102.121 109.816 103.657 109.08C105.225 108.312 106.009 107.016 106.009 105.192C106.009 104.072 105.561 103.112 104.665 102.312C103.801 101.512 102.649 101.112 101.209 101.112ZM118.133 114.36C118.069 114.808 118.021 115.192 117.989 115.512C117.957 115.832 117.941 116.12 117.941 116.376C117.941 117.496 118.261 118.36 118.901 118.968C119.541 119.544 120.421 119.832 121.541 119.832C122.085 119.832 122.629 119.768 123.173 119.64C123.717 119.512 124.213 119.336 124.661 119.112L125.093 122.616C124.517 122.904 123.845 123.128 123.077 123.288C122.309 123.48 121.477 123.576 120.581 123.576C119.621 123.576 118.709 123.432 117.845 123.144C117.013 122.888 116.277 122.488 115.637 121.944C115.029 121.4 114.533 120.712 114.149 119.88C113.797 119.016 113.621 118.024 113.621 116.904C113.621 116.456 113.637 116.056 113.669 115.704C113.701 115.32 113.749 114.904 113.813 114.456L118.517 87.48H122.837L118.133 114.36ZM146.11 103.08C145.278 102.568 144.398 102.152 143.47 101.832C142.574 101.48 141.566 101.304 140.446 101.304C139.102 101.304 137.886 101.576 136.798 102.12C135.71 102.664 134.782 103.416 134.014 104.376C133.246 105.304 132.654 106.408 132.238 107.688C131.822 108.968 131.614 110.344 131.614 111.816C131.614 114.248 132.222 116.184 133.438 117.624C134.654 119.032 136.318 119.736 138.43 119.736C139.646 119.736 140.718 119.592 141.646 119.304C142.574 119.016 143.422 118.68 144.19 118.296L144.718 122.088C143.918 122.44 142.942 122.776 141.79 123.096C140.67 123.416 139.31 123.576 137.71 123.576C136.142 123.576 134.718 123.32 133.438 122.808C132.158 122.264 131.054 121.496 130.126 120.504C129.198 119.512 128.478 118.344 127.966 117C127.454 115.624 127.198 114.088 127.198 112.392C127.198 110.376 127.502 108.472 128.11 106.68C128.75 104.888 129.662 103.304 130.846 101.928C132.03 100.552 133.454 99.464 135.118 98.664C136.782 97.864 138.67 97.464 140.782 97.464C142.286 97.464 143.614 97.656 144.766 98.04C145.918 98.392 146.958 98.84 147.886 99.384L146.11 103.08ZM160.285 119.736C161.725 119.736 163.005 119.464 164.125 118.92C165.245 118.376 166.205 117.624 167.005 116.664C167.805 115.704 168.413 114.584 168.829 113.304C169.245 112.024 169.453 110.632 169.453 109.128C169.453 108.04 169.277 107.016 168.925 106.056C168.605 105.096 168.125 104.264 167.485 103.56C166.877 102.856 166.125 102.312 165.229 101.928C164.333 101.512 163.309 101.304 162.157 101.304C160.749 101.304 159.469 101.576 158.317 102.12C157.197 102.664 156.237 103.416 155.437 104.376C154.637 105.336 154.029 106.472 153.613 107.784C153.197 109.064 152.989 110.44 152.989 111.912C152.989 113 153.149 114.024 153.469 114.984C153.789 115.944 154.253 116.776 154.861 117.48C155.501 118.184 156.269 118.744 157.165 119.16C158.093 119.544 159.133 119.736 160.285 119.736ZM160.141 123.576C158.349 123.576 156.733 123.304 155.293 122.76C153.885 122.184 152.685 121.4 151.693 120.408C150.701 119.416 149.933 118.232 149.389 116.856C148.845 115.448 148.573 113.928 148.573 112.296C148.573 110.216 148.893 108.28 149.533 106.488C150.173 104.664 151.085 103.096 152.269 101.784C153.485 100.44 154.941 99.384 156.637 98.616C158.333 97.848 160.221 97.464 162.301 97.464C164.061 97.464 165.661 97.752 167.101 98.328C168.541 98.872 169.757 99.64 170.749 100.632C171.741 101.624 172.509 102.824 173.053 104.232C173.597 105.608 173.869 107.112 173.869 108.744C173.869 110.824 173.549 112.776 172.909 114.6C172.269 116.392 171.341 117.96 170.125 119.304C168.941 120.616 167.501 121.656 165.805 122.424C164.109 123.192 162.221 123.576 160.141 123.576ZM208.745 101.256C207.945 101.256 207.081 101.48 206.153 101.928C205.225 102.376 204.329 103.064 203.465 103.992C202.633 104.92 201.865 106.104 201.161 107.544C200.489 108.984 199.977 110.696 199.625 112.68L197.801 123H193.481L196.217 108.072C196.377 107.304 196.473 106.744 196.505 106.392C196.537 106.04 196.553 105.688 196.553 105.336C196.553 104.088 196.185 103.096 195.449 102.36C194.745 101.624 193.817 101.256 192.665 101.256C191.833 101.256 190.953 101.496 190.025 101.976C189.097 102.424 188.201 103.128 187.337 104.088C186.473 105.048 185.689 106.28 184.985 107.784C184.313 109.256 183.801 111.016 183.449 113.064L181.721 123H177.401L181.769 98.04H185.945L184.889 103.8C185.849 101.88 187.145 100.344 188.777 99.192C190.409 98.04 192.121 97.464 193.913 97.464C194.905 97.464 195.801 97.624 196.601 97.944C197.401 98.264 198.089 98.712 198.665 99.288C199.273 99.832 199.753 100.504 200.105 101.304C200.457 102.072 200.681 102.904 200.777 103.8C201.865 101.784 203.193 100.232 204.761 99.144C206.361 98.024 208.089 97.464 209.945 97.464C211.001 97.464 211.961 97.64 212.825 97.992C213.689 98.344 214.425 98.84 215.033 99.48C215.641 100.088 216.105 100.808 216.425 101.64C216.777 102.472 216.953 103.368 216.953 104.328C216.953 105.16 216.857 106.168 216.665 107.352L213.881 123H209.561L212.297 108.072C212.457 107.304 212.553 106.744 212.585 106.392C212.617 106.04 212.633 105.688 212.633 105.336C212.633 104.088 212.265 103.096 211.529 102.36C210.825 101.624 209.897 101.256 208.745 101.256ZM231.981 123.576C230.381 123.576 228.925 123.32 227.613 122.808C226.301 122.264 225.165 121.512 224.205 120.552C223.277 119.56 222.541 118.36 221.997 116.952C221.485 115.544 221.229 113.96 221.229 112.2C221.229 110.216 221.549 108.328 222.189 106.536C222.829 104.744 223.725 103.176 224.877 101.832C226.061 100.488 227.485 99.432 229.149 98.664C230.813 97.864 232.669 97.464 234.717 97.464C236.093 97.464 237.325 97.672 238.413 98.088C239.501 98.504 240.413 99.048 241.149 99.72C241.917 100.392 242.493 101.176 242.877 102.072C243.293 102.968 243.501 103.896 243.501 104.856C243.501 106.648 243.069 108.104 242.205 109.224C241.373 110.344 240.317 111.24 239.037 111.912C237.757 112.552 236.349 113 234.813 113.256C233.277 113.48 231.821 113.592 230.445 113.592C229.581 113.592 228.717 113.56 227.853 113.496C227.021 113.4 226.285 113.304 225.645 113.208C225.901 115.32 226.637 116.936 227.853 118.056C229.101 119.176 230.717 119.736 232.701 119.736C234.301 119.736 235.725 119.528 236.973 119.112C238.221 118.696 239.277 118.28 240.141 117.864L240.525 121.704C239.565 122.152 238.349 122.584 236.877 123C235.437 123.384 233.805 123.576 231.981 123.576ZM234.381 101.112C233.261 101.112 232.205 101.336 231.213 101.784C230.253 102.2 229.389 102.792 228.621 103.56C227.885 104.328 227.261 105.24 226.749 106.296C226.269 107.352 225.933 108.504 225.741 109.752C226.477 109.912 227.213 110.024 227.949 110.088C228.685 110.152 229.517 110.184 230.445 110.184C233.165 110.184 235.293 109.816 236.829 109.08C238.397 108.312 239.181 107.016 239.181 105.192C239.181 104.072 238.733 103.112 237.837 102.312C236.973 101.512 235.821 101.112 234.381 101.112ZM21.0228 155.952H25.4388L27.7428 148.08H31.0548L29.6628 155.952H36.5748L35.9508 159.696H28.9908L26.9748 171.36C26.8468 172 26.7828 172.608 26.7828 173.184C26.7828 174.304 27.1028 175.184 27.7428 175.824C28.4148 176.432 29.3108 176.736 30.4308 176.736C31.3588 176.736 32.1268 176.608 32.7348 176.352C33.3748 176.064 33.9668 175.776 34.5108 175.488L35.0388 179.232C34.4308 179.584 33.6628 179.888 32.7348 180.144C31.8388 180.432 30.8308 180.576 29.7108 180.576C28.8148 180.576 27.9348 180.432 27.0708 180.144C26.2068 179.888 25.4388 179.488 24.7668 178.944C24.0948 178.368 23.5508 177.632 23.1348 176.736C22.7188 175.84 22.5108 174.768 22.5108 173.52C22.5108 173.168 22.5268 172.816 22.5588 172.464C22.5908 172.08 22.6388 171.648 22.7028 171.168L24.6708 159.696H20.3988L21.0228 155.952ZM50.1521 176.736C51.5921 176.736 52.8721 176.464 53.9921 175.92C55.1121 175.376 56.0721 174.624 56.8721 173.664C57.6721 172.704 58.2801 171.584 58.6961 170.304C59.1121 169.024 59.3201 167.632 59.3201 166.128C59.3201 165.04 59.1441 164.016 58.7921 163.056C58.4721 162.096 57.9921 161.264 57.3521 160.56C56.7441 159.856 55.9921 159.312 55.0961 158.928C54.2001 158.512 53.1761 158.304 52.0241 158.304C50.6161 158.304 49.3361 158.576 48.1841 159.12C47.0641 159.664 46.1041 160.416 45.3041 161.376C44.5041 162.336 43.8961 163.472 43.4801 164.784C43.0641 166.064 42.8561 167.44 42.8561 168.912C42.8561 170 43.0161 171.024 43.3361 171.984C43.6561 172.944 44.1201 173.776 44.7281 174.48C45.3681 175.184 46.1361 175.744 47.0321 176.16C47.9601 176.544 49.0001 176.736 50.1521 176.736ZM50.0081 180.576C48.2161 180.576 46.6001 180.304 45.1601 179.76C43.7521 179.184 42.5521 178.4 41.5601 177.408C40.5681 176.416 39.8001 175.232 39.2561 173.856C38.7121 172.448 38.4401 170.928 38.4401 169.296C38.4401 167.216 38.7601 165.28 39.4001 163.488C40.0401 161.664 40.9521 160.096 42.1361 158.784C43.3521 157.44 44.8081 156.384 46.5041 155.616C48.2001 154.848 50.0881 154.464 52.1681 154.464C53.9281 154.464 55.5281 154.752 56.9681 155.328C58.4081 155.872 59.6241 156.64 60.6161 157.632C61.6081 158.624 62.3761 159.824 62.9201 161.232C63.4641 162.608 63.7361 164.112 63.7361 165.744C63.7361 167.824 63.4161 169.776 62.7761 171.6C62.1361 173.392 61.2081 174.96 59.9921 176.304C58.8081 177.616 57.3681 178.656 55.6721 179.424C53.9761 180.192 52.0881 180.576 50.0081 180.576ZM93.3708 176.736C94.8108 176.736 96.0908 176.464 97.2108 175.92C98.3308 175.376 99.2908 174.624 100.091 173.664C100.891 172.704 101.499 171.584 101.915 170.304C102.331 169.024 102.539 167.632 102.539 166.128C102.539 165.04 102.363 164.016 102.011 163.056C101.691 162.096 101.211 161.264 100.571 160.56C99.9628 159.856 99.2108 159.312 98.3148 158.928C97.4188 158.512 96.3948 158.304 95.2428 158.304C93.8348 158.304 92.5548 158.576 91.4028 159.12C90.2828 159.664 89.3228 160.416 88.5228 161.376C87.7228 162.336 87.1148 163.472 86.6988 164.784C86.2828 166.064 86.0748 167.44 86.0748 168.912C86.0748 170 86.2348 171.024 86.5548 171.984C86.8748 172.944 87.3388 173.776 87.9468 174.48C88.5868 175.184 89.3548 175.744 90.2508 176.16C91.1788 176.544 92.2188 176.736 93.3708 176.736ZM93.2268 180.576C91.4348 180.576 89.8188 180.304 88.3788 179.76C86.9708 179.184 85.7708 178.4 84.7788 177.408C83.7868 176.416 83.0188 175.232 82.4748 173.856C81.9308 172.448 81.6588 170.928 81.6588 169.296C81.6588 167.216 81.9788 165.28 82.6188 163.488C83.2588 161.664 84.1708 160.096 85.3548 158.784C86.5708 157.44 88.0268 156.384 89.7228 155.616C91.4188 154.848 93.3068 154.464 95.3868 154.464C97.1468 154.464 98.7468 154.752 100.187 155.328C101.627 155.872 102.843 156.64 103.835 157.632C104.827 158.624 105.595 159.824 106.139 161.232C106.683 162.608 106.955 164.112 106.955 165.744C106.955 167.824 106.635 169.776 105.995 171.6C105.355 173.392 104.427 174.96 103.211 176.304C102.027 177.616 100.587 178.656 98.8908 179.424C97.1948 180.192 95.3068 180.576 93.2268 180.576ZM118.023 180.576C117.063 180.576 116.151 180.416 115.287 180.096C114.455 179.776 113.703 179.312 113.031 178.704C112.391 178.096 111.879 177.36 111.495 176.496C111.143 175.632 110.967 174.656 110.967 173.568C110.967 173.152 110.983 172.736 111.015 172.32C111.047 171.872 111.095 171.408 111.159 170.928L113.895 155.04H118.215L115.431 170.832C115.367 171.152 115.319 171.44 115.287 171.696C115.287 171.92 115.287 172.176 115.287 172.464C115.287 173.904 115.703 174.976 116.535 175.68C117.367 176.384 118.343 176.736 119.463 176.736C120.359 176.736 121.255 176.528 122.151 176.112C123.079 175.664 123.927 175.04 124.695 174.24C125.463 173.44 126.135 172.464 126.711 171.312C127.319 170.128 127.751 168.784 128.007 167.28L130.167 155.04H134.487L131.319 173.232C131.287 173.392 131.255 173.584 131.223 173.808C131.223 174 131.223 174.208 131.223 174.432C131.223 175.328 131.479 175.968 131.991 176.352C132.503 176.704 133.175 176.88 134.007 176.88L132.519 180.24C130.791 180.24 129.463 179.824 128.535 178.992C127.639 178.16 127.191 176.832 127.191 175.008V174.576C124.855 178.576 121.799 180.576 118.023 180.576ZM142.172 162.048C142.204 161.888 142.22 161.712 142.22 161.52C142.252 161.296 142.268 161.072 142.268 160.848C142.268 159.952 142.012 159.328 141.5 158.976C140.988 158.592 140.316 158.4 139.484 158.4L140.972 155.04C142.7 155.04 144.012 155.44 144.908 156.24C145.804 157.04 146.252 158.256 146.252 159.888V160.848C147.18 158.544 148.364 156.912 149.804 155.952C151.276 154.96 152.94 154.464 154.796 154.464C155.532 154.464 156.156 154.528 156.668 154.656C157.212 154.752 157.66 154.88 158.012 155.04L156.092 159.264C155.708 159.104 155.308 158.992 154.892 158.928C154.476 158.864 153.996 158.832 153.452 158.832C152.588 158.832 151.724 159.056 150.86 159.504C149.996 159.92 149.18 160.64 148.412 161.664C147.644 162.688 146.94 164.032 146.3 165.696C145.66 167.36 145.132 169.424 144.716 171.888L143.324 180H139.004L142.172 162.048ZM189.6 160.464C188.672 159.824 187.632 159.264 186.48 158.784C185.36 158.304 184.08 158.064 182.64 158.064C181.104 158.064 179.92 158.32 179.088 158.832C178.288 159.344 177.888 160.016 177.888 160.848C177.888 161.232 177.952 161.584 178.08 161.904C178.24 162.224 178.496 162.56 178.848 162.912C179.232 163.232 179.744 163.584 180.384 163.968C181.024 164.352 181.84 164.8 182.832 165.312C185.04 166.432 186.656 167.568 187.68 168.72C188.736 169.84 189.264 171.264 189.264 172.992C189.264 174.272 189.008 175.392 188.496 176.352C187.984 177.28 187.264 178.064 186.336 178.704C185.44 179.312 184.384 179.776 183.168 180.096C181.952 180.416 180.64 180.576 179.232 180.576C177.28 180.576 175.552 180.336 174.048 179.856C172.576 179.344 171.296 178.688 170.208 177.888L172.656 174.336C173.52 175.04 174.528 175.632 175.68 176.112C176.864 176.592 178.176 176.832 179.616 176.832C181.248 176.832 182.512 176.528 183.408 175.92C184.336 175.312 184.8 174.56 184.8 173.664C184.8 173.248 184.72 172.864 184.56 172.512C184.432 172.128 184.176 171.744 183.792 171.36C183.408 170.976 182.88 170.592 182.208 170.208C181.568 169.792 180.752 169.328 179.76 168.816C178.544 168.208 177.536 167.632 176.736 167.088C175.968 166.512 175.344 165.92 174.864 165.312C174.416 164.704 174.096 164.064 173.904 163.392C173.712 162.688 173.616 161.92 173.616 161.088C173.616 160.128 173.84 159.248 174.288 158.448C174.736 157.616 175.36 156.912 176.16 156.336C176.96 155.76 177.92 155.312 179.04 154.992C180.16 154.64 181.392 154.464 182.736 154.464C184.528 154.464 186.128 154.704 187.536 155.184C188.976 155.632 190.24 156.176 191.328 156.816L189.6 160.464ZM194.32 155.952H198.736L201.04 148.08H204.352L202.96 155.952H209.872L209.248 159.696H202.288L200.272 171.36C200.144 172 200.08 172.608 200.08 173.184C200.08 174.304 200.4 175.184 201.04 175.824C201.712 176.432 202.608 176.736 203.728 176.736C204.656 176.736 205.424 176.608 206.032 176.352C206.672 176.064 207.264 175.776 207.808 175.488L208.336 179.232C207.728 179.584 206.96 179.888 206.032 180.144C205.136 180.432 204.128 180.576 203.008 180.576C202.112 180.576 201.232 180.432 200.368 180.144C199.504 179.888 198.736 179.488 198.064 178.944C197.392 178.368 196.848 177.632 196.432 176.736C196.016 175.84 195.808 174.768 195.808 173.52C195.808 173.168 195.824 172.816 195.856 172.464C195.888 172.08 195.936 171.648 196 171.168L197.968 159.696H193.696L194.32 155.952ZM223.449 176.736C224.889 176.736 226.169 176.464 227.289 175.92C228.409 175.376 229.369 174.624 230.169 173.664C230.969 172.704 231.577 171.584 231.993 170.304C232.409 169.024 232.617 167.632 232.617 166.128C232.617 165.04 232.441 164.016 232.089 163.056C231.769 162.096 231.289 161.264 230.649 160.56C230.041 159.856 229.289 159.312 228.393 158.928C227.497 158.512 226.473 158.304 225.321 158.304C223.913 158.304 222.633 158.576 221.481 159.12C220.361 159.664 219.401 160.416 218.601 161.376C217.801 162.336 217.193 163.472 216.777 164.784C216.361 166.064 216.153 167.44 216.153 168.912C216.153 170 216.313 171.024 216.633 171.984C216.953 172.944 217.417 173.776 218.025 174.48C218.665 175.184 219.433 175.744 220.329 176.16C221.257 176.544 222.297 176.736 223.449 176.736ZM223.305 180.576C221.513 180.576 219.897 180.304 218.457 179.76C217.049 179.184 215.849 178.4 214.857 177.408C213.865 176.416 213.097 175.232 212.553 173.856C212.009 172.448 211.737 170.928 211.737 169.296C211.737 167.216 212.057 165.28 212.697 163.488C213.337 161.664 214.249 160.096 215.433 158.784C216.649 157.44 218.105 156.384 219.801 155.616C221.497 154.848 223.385 154.464 225.465 154.464C227.225 154.464 228.825 154.752 230.265 155.328C231.705 155.872 232.921 156.64 233.913 157.632C234.905 158.624 235.673 159.824 236.217 161.232C236.761 162.608 237.033 164.112 237.033 165.744C237.033 167.824 236.713 169.776 236.073 171.6C235.433 173.392 234.505 174.96 233.289 176.304C232.105 177.616 230.665 178.656 228.969 179.424C227.273 180.192 225.385 180.576 223.305 180.576ZM244.453 162.048C244.485 161.888 244.501 161.712 244.501 161.52C244.533 161.296 244.549 161.072 244.549 160.848C244.549 159.952 244.293 159.328 243.781 158.976C243.269 158.592 242.597 158.4 241.765 158.4L243.253 155.04C244.981 155.04 246.293 155.44 247.189 156.24C248.085 157.04 248.533 158.256 248.533 159.888V160.848C249.461 158.544 250.645 156.912 252.085 155.952C253.557 154.96 255.221 154.464 257.077 154.464C257.813 154.464 258.437 154.528 258.949 154.656C259.493 154.752 259.941 154.88 260.293 155.04L258.373 159.264C257.989 159.104 257.589 158.992 257.173 158.928C256.757 158.864 256.277 158.832 255.733 158.832C254.869 158.832 254.005 159.056 253.141 159.504C252.277 159.92 251.461 160.64 250.693 161.664C249.925 162.688 249.221 164.032 248.581 165.696C247.941 167.36 247.413 169.424 246.997 171.888L245.605 180H241.285L244.453 162.048ZM270.301 180.576C268.701 180.576 267.245 180.32 265.933 179.808C264.621 179.264 263.485 178.512 262.525 177.552C261.597 176.56 260.861 175.36 260.317 173.952C259.805 172.544 259.549 170.96 259.549 169.2C259.549 167.216 259.869 165.328 260.509 163.536C261.149 161.744 262.045 160.176 263.197 158.832C264.381 157.488 265.805 156.432 267.469 155.664C269.133 154.864 270.989 154.464 273.037 154.464C274.413 154.464 275.645 154.672 276.733 155.088C277.821 155.504 278.733 156.048 279.469 156.72C280.237 157.392 280.813 158.176 281.197 159.072C281.613 159.968 281.821 160.896 281.821 161.856C281.821 163.648 281.389 165.104 280.525 166.224C279.693 167.344 278.637 168.24 277.357 168.912C276.077 169.552 274.669 170 273.133 170.256C271.597 170.48 270.141 170.592 268.765 170.592C267.901 170.592 267.037 170.56 266.173 170.496C265.341 170.4 264.605 170.304 263.965 170.208C264.221 172.32 264.957 173.936 266.173 175.056C267.421 176.176 269.037 176.736 271.021 176.736C272.621 176.736 274.045 176.528 275.293 176.112C276.541 175.696 277.597 175.28 278.461 174.864L278.845 178.704C277.885 179.152 276.669 179.584 275.197 180C273.757 180.384 272.125 180.576 270.301 180.576ZM272.701 158.112C271.581 158.112 270.525 158.336 269.533 158.784C268.573 159.2 267.709 159.792 266.941 160.56C266.205 161.328 265.581 162.24 265.069 163.296C264.589 164.352 264.253 165.504 264.061 166.752C264.797 166.912 265.533 167.024 266.269 167.088C267.005 167.152 267.837 167.184 268.765 167.184C271.485 167.184 273.613 166.816 275.149 166.08C276.717 165.312 277.501 164.016 277.501 162.192C277.501 161.072 277.053 160.112 276.157 159.312C275.293 158.512 274.141 158.112 272.701 158.112Z" fill="white"/>
<path fill-rule="evenodd" clip-rule="evenodd" d="M159.962 4.38356C160.204 2.22196 158.672 0.270075 156.51 0.0281049C154.348 -0.229996 152.396 1.31861 152.154 3.48021C151.864 5.9483 152.267 8.90033 152.784 11.933C154.219 12.3686 155.607 12.9977 156.897 13.7397C158.284 10.4651 159.639 7.22268 159.962 4.38356ZM175.142 13.8688C174.287 11.8685 171.964 10.9651 169.963 11.8201C167.334 12.9654 164.608 15.2077 161.866 17.5145C162.898 18.5307 163.866 19.6761 164.689 20.9182C167.802 20.531 170.786 20.0632 173.093 19.0631C175.093 18.1758 176.013 15.8529 175.142 13.8688ZM168.512 3.31889C166.769 2.02839 164.301 2.38328 163.011 4.12546C161.043 6.771 159.72 10.7232 158.284 14.5786C158.768 14.9012 159.22 15.2238 159.656 15.5626C159.978 15.8207 160.317 16.0949 160.656 16.3691C163.946 13.8849 167.366 11.4652 169.334 8.81968C170.625 7.07749 170.254 4.6094 168.512 3.31889Z" fill="white"/>
<path d="M161.027 34.904C159.817 36.2106 158.526 37.4205 157.155 38.5981C155.236 40.2596 153.284 41.8727 151.3 43.4213C149.17 42.1147 147.638 41.4533 147.38 41.7921C147.154 42.0986 148.041 43.2278 149.638 44.6957C144.282 48.6801 138.62 52.1968 132.539 55.0843C131.587 55.536 130.587 55.8586 129.603 56.2135C129.345 56.3103 129.071 56.3103 128.958 56.3264C127.409 56.5038 126.941 56.0844 127.006 54.6649C127.199 50.2449 128.57 46.0991 129.99 41.9695C130.377 40.8403 130.78 39.7111 131.2 38.5819C133.345 39.8886 134.878 40.5661 135.136 40.2273C135.41 39.8563 134.12 38.3722 131.958 36.5171C133.507 32.5166 135.233 28.5805 137.265 24.8058C141.33 27.8223 144.944 29.8065 145.347 29.258C145.75 28.7096 142.766 25.7898 138.653 22.741L138.475 22.6119C139.185 21.4021 139.927 20.1922 140.717 19.0146C141.701 17.5306 142.911 16.1755 144.105 14.8528C145.702 13.0944 147.767 12.4976 150.074 13.0138C157.462 14.6592 162.591 18.9017 165.011 26.177C165.495 27.661 165.06 29.1129 164.301 30.4518C163.785 31.3551 163.221 32.2101 162.591 33.0166C158.688 30.1614 155.3 28.3224 154.913 28.8386C154.542 29.3548 157.236 32.0165 161.027 34.904Z" fill="white"/>
</svg>
