<svg width="24" height="39" viewBox="0 0 24 39" fill="none" xmlns="http://www.w3.org/2000/svg">
<path d="M5.25286 28.1834C4.81286 28.1834 4.40086 28.2834 4.01686 28.4834C3.64086 28.6834 3.30886 28.9634 3.02086 29.3234C2.74086 29.6834 2.52086 30.1114 2.36086 30.6074C2.20086 31.0954 2.12086 31.6314 2.12086 32.2154C2.12086 32.6474 2.17686 33.0314 2.28886 33.3674C2.40086 33.6954 2.55686 33.9714 2.75686 34.1954C2.95686 34.4194 3.19286 34.5914 3.46486 34.7114C3.74486 34.8234 4.04886 34.8794 4.37686 34.8794C4.75286 34.8794 5.08486 34.8274 5.37286 34.7234C5.66886 34.6194 5.95686 34.4954 6.23686 34.3514L6.42886 35.3834C6.13286 35.5194 5.80486 35.6354 5.44486 35.7314C5.08486 35.8274 4.67686 35.8754 4.22086 35.8754C3.72486 35.8754 3.27686 35.7954 2.87686 35.6354C2.47686 35.4754 2.13286 35.2434 1.84486 34.9394C1.55686 34.6354 1.33286 34.2634 1.17286 33.8234C1.02086 33.3754 0.944859 32.8674 0.944859 32.2994C0.944859 31.5794 1.05286 30.9074 1.26886 30.2834C1.48486 29.6594 1.78486 29.1194 2.16886 28.6634C2.56086 28.2074 3.02486 27.8474 3.56086 27.5834C4.10486 27.3194 4.70086 27.1874 5.34886 27.1874C5.82886 27.1874 6.24486 27.2514 6.59686 27.3794C6.95686 27.5074 7.25686 27.6394 7.49686 27.7754L6.98086 28.7114C6.74086 28.5594 6.48886 28.4354 6.22486 28.3394C5.96086 28.2354 5.63686 28.1834 5.25286 28.1834ZM7.17642 33.2714C7.17642 32.6954 7.27242 32.1674 7.46442 31.6874C7.66442 31.1994 7.94042 30.7834 8.29242 30.4394C8.64442 30.0954 9.06442 29.8274 9.55242 29.6354C10.0404 29.4434 10.5724 29.3474 11.1484 29.3474C11.6204 29.3474 12.0324 29.3954 12.3844 29.4914C12.7444 29.5874 13.0404 29.6834 13.2724 29.7794L12.5164 34.0394C12.5084 34.0794 12.5004 34.1274 12.4924 34.1834C12.4924 34.2314 12.4924 34.2834 12.4924 34.3394C12.4924 34.5634 12.5564 34.7234 12.6844 34.8194C12.8124 34.9074 12.9804 34.9514 13.1884 34.9514L12.8164 35.7914C12.3844 35.7914 12.0524 35.6874 11.8204 35.4794C11.5964 35.2714 11.4844 34.9394 11.4844 34.4834C11.2604 34.8674 10.9764 35.1954 10.6324 35.4674C10.2964 35.7394 9.90042 35.8754 9.44442 35.8754C9.14842 35.8754 8.86442 35.8154 8.59242 35.6954C8.32042 35.5754 8.07642 35.4034 7.86042 35.1794C7.65242 34.9554 7.48442 34.6834 7.35642 34.3634C7.23642 34.0354 7.17642 33.6714 7.17642 33.2714ZM12.0844 30.4154C11.9324 30.3674 11.7724 30.3314 11.6044 30.3074C11.4444 30.2754 11.2484 30.2594 11.0164 30.2594C10.6004 30.2594 10.2244 30.3314 9.88842 30.4754C9.55242 30.6194 9.26442 30.8194 9.02442 31.0754C8.78442 31.3314 8.60042 31.6354 8.47242 31.9874C8.34442 32.3394 8.28042 32.7234 8.28042 33.1394C8.28042 33.4274 8.32042 33.6834 8.40042 33.9074C8.48842 34.1234 8.60042 34.3074 8.73642 34.4594C8.87242 34.6114 9.02442 34.7274 9.19242 34.8074C9.36842 34.8794 9.54842 34.9154 9.73242 34.9154C9.97242 34.9154 10.2004 34.8514 10.4164 34.7234C10.6404 34.5954 10.8404 34.4154 11.0164 34.1834C11.1924 33.9434 11.3444 33.6634 11.4724 33.3434C11.6004 33.0154 11.6964 32.6594 11.7604 32.2754L12.0844 30.4154ZM15.25 31.2434C15.258 31.2034 15.262 31.1594 15.262 31.1114C15.27 31.0554 15.274 30.9994 15.274 30.9434C15.274 30.7194 15.21 30.5634 15.082 30.4754C14.954 30.3794 14.786 30.3314 14.578 30.3314L14.95 29.4914C15.382 29.4914 15.71 29.5914 15.934 29.7914C16.158 29.9914 16.27 30.2954 16.27 30.7034V30.9434C16.502 30.3674 16.798 29.9594 17.158 29.7194C17.526 29.4714 17.942 29.3474 18.406 29.3474C18.59 29.3474 18.746 29.3634 18.874 29.3954C19.01 29.4194 19.122 29.4514 19.21 29.4914L18.73 30.5474C18.634 30.5074 18.534 30.4794 18.43 30.4634C18.326 30.4474 18.206 30.4394 18.07 30.4394C17.854 30.4394 17.638 30.4954 17.422 30.6074C17.206 30.7114 17.002 30.8914 16.81 31.1474C16.618 31.4034 16.442 31.7394 16.282 32.1554C16.122 32.5714 15.99 33.0874 15.886 33.7034L15.538 35.7314H14.458L15.25 31.2434ZM19.5916 29.7194H20.6956L21.2716 27.7514H22.0996L21.7516 29.7194H23.4796L23.3236 30.6554H21.5836L21.0796 33.5714C21.0476 33.7314 21.0316 33.8834 21.0316 34.0274C21.0316 34.3074 21.1116 34.5274 21.2716 34.6874C21.4396 34.8394 21.6636 34.9154 21.9436 34.9154C22.1756 34.9154 22.3676 34.8834 22.5196 34.8194C22.6796 34.7474 22.8276 34.6754 22.9636 34.6034L23.0956 35.5394C22.9436 35.6274 22.7516 35.7034 22.5196 35.7674C22.2956 35.8394 22.0436 35.8754 21.7636 35.8754C21.5396 35.8754 21.3196 35.8394 21.1036 35.7674C20.8876 35.7034 20.6956 35.6034 20.5276 35.4674C20.3596 35.3234 20.2236 35.1394 20.1196 34.9154C20.0156 34.6914 19.9636 34.4234 19.9636 34.1114C19.9636 34.0234 19.9676 33.9354 19.9756 33.8474C19.9836 33.7514 19.9956 33.6434 20.0116 33.5234L20.5036 30.6554H19.4356L19.5916 29.7194Z" fill="#181725"/>
<path d="M9.53599 19.5629C8.88744 19.5629 8.26545 19.3053 7.80686 18.8467C7.34826 18.3881 7.09063 17.7661 7.09063 17.1175C7.09063 16.469 7.34826 15.847 7.80686 15.3884C8.26545 14.9298 8.88744 14.6722 9.53599 14.6722C10.1845 14.6722 10.8065 14.9298 11.2651 15.3884C11.7237 15.847 11.9814 16.469 11.9814 17.1175C11.9814 17.7661 11.7237 18.3881 11.2651 18.8467C10.8065 19.3053 10.1845 19.5629 9.53599 19.5629ZM18.0948 19.5629C17.4462 19.5629 16.8242 19.3053 16.3656 18.8467C15.907 18.3881 15.6494 17.7661 15.6494 17.1175C15.6494 16.469 15.907 15.847 16.3656 15.3884C16.8242 14.9298 17.4462 14.6722 18.0948 14.6722C18.7433 14.6722 19.3653 14.9298 19.8239 15.3884C20.2825 15.847 20.5401 16.469 20.5401 17.1175C20.5401 17.7661 20.2825 18.3881 19.8239 18.8467C19.3653 19.3053 18.7433 19.5629 18.0948 19.5629ZM2.15344 2.35122C1.84821 2.34137 1.55878 2.2132 1.34634 1.99381C1.13391 1.77441 1.01514 1.481 1.01514 1.17561C1.01514 0.870221 1.13391 0.576806 1.34634 0.357411C1.55878 0.138017 1.84821 0.0098448 2.15344 0L3.56075 0C4.6636 0 5.6173 0.765399 5.85694 1.84136L7.38896 8.73973C7.62861 9.81569 8.5823 10.5811 9.68516 10.5811H18.8699L20.6331 3.52621H9.20709C8.90473 3.51242 8.61933 3.3826 8.41025 3.16375C8.20116 2.94491 8.08449 2.65389 8.08449 2.35122C8.08449 2.04855 8.20116 1.75753 8.41025 1.53868C8.61933 1.31984 8.90473 1.19002 9.20709 1.17622H20.6331C20.9905 1.17611 21.3432 1.2575 21.6645 1.4142C21.9857 1.57089 22.267 1.79876 22.487 2.0805C22.707 2.36223 22.8598 2.6904 22.9339 3.04007C23.008 3.38974 23.0014 3.7517 22.9146 4.09843L21.1515 11.1509C21.0244 11.6597 20.7308 12.1115 20.3173 12.4343C19.9039 12.7571 19.3945 12.9324 18.8699 12.9323H9.68516C8.61506 12.9325 7.57692 12.5676 6.74218 11.898C5.90744 11.2285 5.32604 10.2942 5.09399 9.24959L3.56075 2.35122H2.15344Z" fill="#181725"/>
</svg>
