<svg width="42" height="38" viewBox="0 0 42 38" fill="none" xmlns="http://www.w3.org/2000/svg">
<path d="M25.4699 14.0005C26.2578 14.0005 27.038 13.8453 27.766 13.5438C28.4939 13.2423 29.1554 12.8003 29.7125 12.2431C30.2697 11.686 30.7116 11.0246 31.0131 10.2966C31.3147 9.56865 31.4699 8.78843 31.4699 8.0005C31.4699 7.21257 31.3147 6.43236 31.0131 5.7044C30.7116 4.97645 30.2697 4.31501 29.7125 3.75786C29.1554 3.20071 28.4939 2.75875 27.766 2.45723C27.038 2.1557 26.2578 2.0005 25.4699 2.0005C23.8786 2.0005 22.3524 2.63264 21.2272 3.75786C20.102 4.88308 19.4699 6.4092 19.4699 8.0005C19.4699 9.5918 20.102 11.1179 21.2272 12.2431C22.3524 13.3684 23.8786 14.0005 25.4699 14.0005ZM31.7899 12.9065L35.3699 16.4865C35.4653 16.5788 35.5414 16.6892 35.5937 16.8113C35.646 16.9333 35.6735 17.0645 35.6746 17.1973C35.6757 17.3301 35.6503 17.4618 35.5999 17.5846C35.5495 17.7075 35.4752 17.8191 35.3812 17.9129C35.2873 18.0067 35.1756 18.0809 35.0526 18.1311C34.9297 18.1813 34.798 18.2065 34.6652 18.2052C34.5325 18.204 34.4013 18.1763 34.2793 18.1238C34.1573 18.0713 34.047 17.9951 33.9549 17.8995L30.3749 14.3195C28.7673 15.5674 26.7447 16.1557 24.7186 15.9647C22.6926 15.7737 20.8155 14.8178 19.4694 13.2916C18.1234 11.7653 17.4095 9.78345 17.4733 7.74943C17.537 5.7154 18.3735 3.78213 19.8125 2.34315C21.2515 0.904173 23.1848 0.0676701 25.2188 0.00392902C27.2528 -0.0598121 29.2347 0.654 30.7609 2.00005C32.2872 3.34611 33.2431 5.22322 33.4341 7.24926C33.625 9.2753 33.0367 11.298 31.7889 12.9055L31.7899 12.9065Z" fill="#181725"/>
<rect x="7.32532" width="8.85499" height="2.39923" rx="1.19961" fill="#181725"/>
<rect x="7.32532" y="7.43817" width="6.46414" height="2.39923" rx="1.19961" fill="#181725"/>
<rect x="7.32532" y="14.8768" width="8.85499" height="2.39923" rx="1.19961" fill="#181725"/>
<path d="M2.27883 26.0495H7.25883L7.09083 27.0335H3.23883L2.79483 29.5895H6.09483L5.92683 30.5495H2.62683L2.11083 33.4655H5.95083L5.78283 34.4495H0.802828L2.27883 26.0495ZM9.15473 31.2215L7.33073 28.7735L8.26673 28.0775L9.85073 30.5495L12.0347 28.1495L12.7787 28.8455L10.3907 31.2815L12.3107 33.8975L11.4107 34.5575L9.70673 31.9655L7.29473 34.5215L6.58673 33.8375L9.15473 31.2215ZM13.9081 28.2095C14.7401 28.2095 15.1561 28.5695 15.1561 29.2895V29.5415C15.3881 29.1095 15.6841 28.7575 16.0441 28.4855C16.4121 28.2055 16.8441 28.0655 17.3401 28.0655C17.6601 28.0655 17.9521 28.1295 18.2161 28.2575C18.4801 28.3855 18.7041 28.5655 18.8881 28.7975C19.0721 29.0215 19.2121 29.2935 19.3081 29.6135C19.4121 29.9255 19.4641 30.2735 19.4641 30.6575C19.4641 31.2495 19.3761 31.7895 19.2001 32.2775C19.0241 32.7575 18.7921 33.1695 18.5041 33.5135C18.2161 33.8575 17.8841 34.1255 17.5081 34.3175C17.1401 34.5015 16.7601 34.5935 16.3681 34.5935C15.9841 34.5935 15.6241 34.4975 15.2881 34.3055C14.9601 34.1135 14.7041 33.8775 14.5201 33.5975L13.9081 37.0895H12.8281L14.0761 29.9495C14.1001 29.8215 14.1121 29.7095 14.1121 29.6135C14.1121 29.2375 13.9161 29.0495 13.5241 29.0495L13.9081 28.2095ZM16.2721 33.6335C16.5521 33.6335 16.8161 33.5655 17.0641 33.4295C17.3201 33.2855 17.5441 33.0895 17.7361 32.8415C17.9281 32.5855 18.0801 32.2815 18.1921 31.9295C18.3041 31.5775 18.3601 31.1895 18.3601 30.7655C18.3601 30.2135 18.2361 29.7815 17.9881 29.4695C17.7401 29.1575 17.4161 29.0015 17.0161 29.0015C16.7761 29.0015 16.5401 29.0615 16.3081 29.1815C16.0841 29.2935 15.8801 29.4535 15.6961 29.6615C15.5121 29.8695 15.3481 30.1255 15.2041 30.4295C15.0681 30.7255 14.9681 31.0535 14.9041 31.4135L14.6881 32.6255C14.8641 32.9535 15.0881 33.2055 15.3601 33.3815C15.6401 33.5495 15.9441 33.6335 16.2721 33.6335ZM21.7149 32.2895C21.6989 32.4015 21.6869 32.4975 21.6789 32.5775C21.6709 32.6575 21.6669 32.7295 21.6669 32.7935C21.6669 33.0735 21.7469 33.2895 21.9069 33.4415C22.0669 33.5855 22.2869 33.6575 22.5669 33.6575C22.7029 33.6575 22.8389 33.6415 22.9749 33.6095C23.1109 33.5775 23.2349 33.5335 23.3469 33.4775L23.4549 34.3535C23.3109 34.4255 23.1429 34.4815 22.9509 34.5215C22.7589 34.5695 22.5509 34.5935 22.3269 34.5935C22.0869 34.5935 21.8589 34.5575 21.6429 34.4855C21.4349 34.4215 21.2509 34.3215 21.0909 34.1855C20.9389 34.0495 20.8149 33.8775 20.7189 33.6695C20.6309 33.4535 20.5869 33.2055 20.5869 32.9255C20.5869 32.8135 20.5909 32.7135 20.5989 32.6255C20.6069 32.5295 20.6189 32.4255 20.6349 32.3135L21.8109 25.5695H22.8909L21.7149 32.2895ZM26.9091 33.6335C27.2691 33.6335 27.5891 33.5655 27.8691 33.4295C28.1491 33.2935 28.3891 33.1055 28.5891 32.8655C28.7891 32.6255 28.9411 32.3455 29.0451 32.0255C29.1491 31.7055 29.2011 31.3575 29.2011 30.9815C29.2011 30.7095 29.1571 30.4535 29.0691 30.2135C28.9891 29.9735 28.8691 29.7655 28.7091 29.5895C28.5571 29.4135 28.3691 29.2775 28.1451 29.1815C27.9211 29.0775 27.6651 29.0255 27.3771 29.0255C27.0251 29.0255 26.7051 29.0935 26.4171 29.2295C26.1371 29.3655 25.8971 29.5535 25.6971 29.7935C25.4971 30.0335 25.3451 30.3175 25.2411 30.6455C25.1371 30.9655 25.0851 31.3095 25.0851 31.6775C25.0851 31.9495 25.1251 32.2055 25.2051 32.4455C25.2851 32.6855 25.4011 32.8935 25.5531 33.0695C25.7131 33.2455 25.9051 33.3855 26.1291 33.4895C26.3611 33.5855 26.6211 33.6335 26.9091 33.6335ZM26.8731 34.5935C26.4251 34.5935 26.0211 34.5255 25.6611 34.3895C25.3091 34.2455 25.0091 34.0495 24.7611 33.8015C24.5131 33.5535 24.3211 33.2575 24.1851 32.9135C24.0491 32.5615 23.9811 32.1815 23.9811 31.7735C23.9811 31.2535 24.0611 30.7695 24.2211 30.3215C24.3811 29.8655 24.6091 29.4735 24.9051 29.1455C25.2091 28.8095 25.5731 28.5455 25.9971 28.3535C26.4211 28.1615 26.8931 28.0655 27.4131 28.0655C27.8531 28.0655 28.2531 28.1375 28.6131 28.2815C28.9731 28.4175 29.2771 28.6095 29.5251 28.8575C29.7731 29.1055 29.9651 29.4055 30.1011 29.7575C30.2371 30.1015 30.3051 30.4775 30.3051 30.8855C30.3051 31.4055 30.2251 31.8935 30.0651 32.3495C29.9051 32.7975 29.6731 33.1895 29.3691 33.5255C29.0731 33.8535 28.7131 34.1135 28.2891 34.3055C27.8651 34.4975 27.3931 34.5935 26.8731 34.5935ZM32.1601 29.9615C32.1681 29.9215 32.1721 29.8775 32.1721 29.8295C32.1801 29.7735 32.1841 29.7175 32.1841 29.6615C32.1841 29.4375 32.1201 29.2815 31.9921 29.1935C31.8641 29.0975 31.6961 29.0495 31.4881 29.0495L31.8601 28.2095C32.2921 28.2095 32.6201 28.3095 32.8441 28.5095C33.0681 28.7095 33.1801 29.0135 33.1801 29.4215V29.6615C33.4121 29.0855 33.7081 28.6775 34.0681 28.4375C34.4361 28.1895 34.8521 28.0655 35.3161 28.0655C35.5001 28.0655 35.6561 28.0815 35.7841 28.1135C35.9201 28.1375 36.0321 28.1695 36.1201 28.2095L35.6401 29.2655C35.5441 29.2255 35.4441 29.1975 35.3401 29.1815C35.2361 29.1655 35.1161 29.1575 34.9801 29.1575C34.7641 29.1575 34.5481 29.2135 34.3321 29.3255C34.1161 29.4295 33.9121 29.6095 33.7201 29.8655C33.5281 30.1215 33.3521 30.4575 33.1921 30.8735C33.0321 31.2895 32.9001 31.8055 32.7961 32.4215L32.4481 34.4495H31.3681L32.1601 29.9615ZM38.6222 34.5935C38.2222 34.5935 37.8582 34.5295 37.5302 34.4015C37.2022 34.2655 36.9182 34.0775 36.6782 33.8375C36.4462 33.5895 36.2622 33.2895 36.1262 32.9375C35.9982 32.5855 35.9342 32.1895 35.9342 31.7495C35.9342 31.2535 36.0142 30.7815 36.1742 30.3335C36.3342 29.8855 36.5582 29.4935 36.8462 29.1575C37.1422 28.8215 37.4982 28.5575 37.9142 28.3655C38.3302 28.1655 38.7942 28.0655 39.3062 28.0655C39.6502 28.0655 39.9582 28.1175 40.2302 28.2215C40.5022 28.3255 40.7302 28.4615 40.9142 28.6295C41.1062 28.7975 41.2502 28.9935 41.3462 29.2175C41.4502 29.4415 41.5022 29.6735 41.5022 29.9135C41.5022 30.3615 41.3942 30.7255 41.1782 31.0055C40.9702 31.2855 40.7062 31.5095 40.3862 31.6775C40.0662 31.8375 39.7142 31.9495 39.3302 32.0135C38.9462 32.0695 38.5822 32.0975 38.2382 32.0975C38.0222 32.0975 37.8062 32.0895 37.5902 32.0735C37.3822 32.0495 37.1982 32.0255 37.0382 32.0015C37.1022 32.5295 37.2862 32.9335 37.5902 33.2135C37.9022 33.4935 38.3062 33.6335 38.8022 33.6335C39.2022 33.6335 39.5582 33.5815 39.8702 33.4775C40.1822 33.3735 40.4462 33.2695 40.6622 33.1655L40.7582 34.1255C40.5182 34.2375 40.2142 34.3455 39.8462 34.4495C39.4862 34.5455 39.0782 34.5935 38.6222 34.5935ZM39.2222 28.9775C38.9422 28.9775 38.6782 29.0335 38.4302 29.1455C38.1902 29.2495 37.9742 29.3975 37.7822 29.5895C37.5982 29.7815 37.4422 30.0095 37.3142 30.2735C37.1942 30.5375 37.1102 30.8255 37.0622 31.1375C37.2462 31.1775 37.4302 31.2055 37.6142 31.2215C37.7982 31.2375 38.0062 31.2455 38.2382 31.2455C38.9182 31.2455 39.4502 31.1535 39.8342 30.9695C40.2262 30.7775 40.4222 30.4535 40.4222 29.9975C40.4222 29.7175 40.3102 29.4775 40.0862 29.2775C39.8702 29.0775 39.5822 28.9775 39.2222 28.9775Z" fill="#181725"/>
</svg>
