<svg width="52" height="41" viewBox="0 0 52 41" fill="none" xmlns="http://www.w3.org/2000/svg">
<path d="M18.6942 11.0097L26.5183 18.8338L34.3424 11.0097C35.0342 10.3179 35.4228 9.37973 35.4228 8.40145C35.4228 7.42317 35.0342 6.48496 34.3424 5.79321C33.9999 5.4507 33.5933 5.179 33.1458 4.99363C32.6982 4.80826 32.2186 4.71285 31.7342 4.71285C30.7559 4.71285 29.8177 5.10147 29.126 5.79321L26.5183 8.40084L23.9107 5.79444C23.2172 5.11198 22.2821 4.7312 21.3091 4.73504C20.3361 4.73889 19.4041 5.12705 18.716 5.81498C18.0279 6.50291 17.6395 7.43487 17.6354 8.40786C17.6314 9.38084 18.0119 10.316 18.6942 11.0097ZM25.6491 4.05357L26.5183 4.92278L27.3875 4.05357C27.9574 3.47865 28.6353 3.02196 29.3822 2.70971C30.129 2.39747 30.9302 2.23582 31.7398 2.23405C32.5493 2.23227 33.3512 2.39041 34.0994 2.69938C34.8477 3.00836 35.5275 3.46207 36.0999 4.03449C36.6723 4.60691 37.1261 5.28675 37.435 6.03499C37.744 6.78323 37.9021 7.58513 37.9004 8.39465C37.8986 9.20417 37.7369 10.0054 37.4247 10.7522C37.1125 11.4991 36.6558 12.177 36.0808 12.7469L27.3888 21.4402C27.2746 21.5545 27.139 21.6452 26.9897 21.707C26.8405 21.7689 26.6805 21.8008 26.5189 21.8008C26.3574 21.8008 26.1974 21.7689 26.0481 21.707C25.8989 21.6452 25.7633 21.5545 25.6491 21.4402L16.9558 12.7481C16.3731 12.18 15.9089 11.5019 15.5903 10.7531C15.2717 10.0042 15.1049 9.19955 15.0997 8.38576C15.0945 7.57196 15.2509 6.76523 15.5599 6.01237C15.8689 5.2595 16.3244 4.57548 16.8998 3.99999C17.4752 3.42449 18.1591 2.96899 18.912 2.65988C19.6648 2.35078 20.4715 2.19424 21.2853 2.19934C22.0991 2.20444 22.9038 2.37108 23.6527 2.68959C24.4015 3.0081 25.0797 3.47214 25.6479 4.0548L25.6491 4.05357Z" fill="#181725"/>
<path d="M2.08742 29.2865H7.00742L6.83942 30.2705H3.04742L2.60342 32.8385H5.74742L5.57942 33.7745H2.43542L1.75142 37.6865H0.611422L2.08742 29.2865ZM6.32877 35.2265C6.32877 34.6505 6.42477 34.1225 6.61677 33.6425C6.81677 33.1545 7.09277 32.7385 7.44477 32.3945C7.79677 32.0505 8.21677 31.7825 8.70477 31.5905C9.19277 31.3985 9.72477 31.3025 10.3008 31.3025C10.7728 31.3025 11.1848 31.3505 11.5368 31.4465C11.8968 31.5425 12.1928 31.6385 12.4248 31.7345L11.6688 35.9945C11.6608 36.0345 11.6528 36.0825 11.6448 36.1385C11.6448 36.1865 11.6448 36.2385 11.6448 36.2945C11.6448 36.5185 11.7088 36.6785 11.8368 36.7745C11.9648 36.8625 12.1328 36.9065 12.3408 36.9065L11.9688 37.7465C11.5368 37.7465 11.2048 37.6425 10.9728 37.4345C10.7488 37.2265 10.6368 36.8945 10.6368 36.4385C10.4128 36.8225 10.1288 37.1505 9.78477 37.4225C9.44877 37.6945 9.05277 37.8305 8.59677 37.8305C8.30077 37.8305 8.01677 37.7705 7.74477 37.6505C7.47277 37.5305 7.22877 37.3585 7.01277 37.1345C6.80477 36.9105 6.63677 36.6385 6.50877 36.3185C6.38877 35.9905 6.32877 35.6265 6.32877 35.2265ZM11.2368 32.3705C11.0848 32.3225 10.9248 32.2865 10.7568 32.2625C10.5968 32.2305 10.4008 32.2145 10.1688 32.2145C9.75277 32.2145 9.37677 32.2865 9.04077 32.4305C8.70477 32.5745 8.41677 32.7745 8.17677 33.0305C7.93677 33.2865 7.75277 33.5905 7.62477 33.9425C7.49677 34.2945 7.43277 34.6785 7.43277 35.0945C7.43277 35.3825 7.47277 35.6385 7.55277 35.8625C7.64077 36.0785 7.75277 36.2625 7.88877 36.4145C8.02477 36.5665 8.17677 36.6825 8.34477 36.7625C8.52077 36.8345 8.70077 36.8705 8.88477 36.8705C9.12477 36.8705 9.35277 36.8065 9.56877 36.6785C9.79277 36.5505 9.99277 36.3705 10.1688 36.1385C10.3448 35.8985 10.4968 35.6185 10.6248 35.2985C10.7528 34.9705 10.8488 34.6145 10.9128 34.2305L11.2368 32.3705ZM13.3717 31.5905L14.3917 31.3265L15.6277 36.4865L18.6157 31.3265L19.4917 31.8425L15.9877 37.6865H14.8717L13.3717 31.5905ZM22.4052 36.8705C22.7652 36.8705 23.0852 36.8025 23.3652 36.6665C23.6452 36.5305 23.8852 36.3425 24.0852 36.1025C24.2852 35.8625 24.4372 35.5825 24.5412 35.2625C24.6452 34.9425 24.6972 34.5945 24.6972 34.2185C24.6972 33.9465 24.6532 33.6905 24.5652 33.4505C24.4852 33.2105 24.3652 33.0025 24.2052 32.8265C24.0532 32.6505 23.8652 32.5145 23.6412 32.4185C23.4172 32.3145 23.1612 32.2625 22.8732 32.2625C22.5212 32.2625 22.2012 32.3305 21.9132 32.4665C21.6332 32.6025 21.3932 32.7905 21.1932 33.0305C20.9932 33.2705 20.8412 33.5545 20.7372 33.8825C20.6332 34.2025 20.5812 34.5465 20.5812 34.9145C20.5812 35.1865 20.6212 35.4425 20.7012 35.6825C20.7812 35.9225 20.8972 36.1305 21.0492 36.3065C21.2092 36.4825 21.4012 36.6225 21.6252 36.7265C21.8572 36.8225 22.1172 36.8705 22.4052 36.8705ZM22.3692 37.8305C21.9212 37.8305 21.5172 37.7625 21.1572 37.6265C20.8052 37.4825 20.5052 37.2865 20.2572 37.0385C20.0092 36.7905 19.8172 36.4945 19.6812 36.1505C19.5452 35.7985 19.4772 35.4185 19.4772 35.0105C19.4772 34.4905 19.5572 34.0065 19.7172 33.5585C19.8772 33.1025 20.1052 32.7105 20.4012 32.3825C20.7052 32.0465 21.0692 31.7825 21.4932 31.5905C21.9172 31.3985 22.3892 31.3025 22.9092 31.3025C23.3492 31.3025 23.7492 31.3745 24.1092 31.5185C24.4692 31.6545 24.7732 31.8465 25.0212 32.0945C25.2692 32.3425 25.4612 32.6425 25.5972 32.9945C25.7332 33.3385 25.8012 33.7145 25.8012 34.1225C25.8012 34.6425 25.7212 35.1305 25.5612 35.5865C25.4012 36.0345 25.1692 36.4265 24.8652 36.7625C24.5692 37.0905 24.2092 37.3505 23.7852 37.5425C23.3612 37.7345 22.8892 37.8305 22.3692 37.8305ZM28.5682 37.8305C28.3282 37.8305 28.1002 37.7905 27.8842 37.7105C27.6762 37.6305 27.4882 37.5145 27.3202 37.3625C27.1602 37.2105 27.0322 37.0265 26.9362 36.8105C26.8482 36.5945 26.8042 36.3505 26.8042 36.0785C26.8042 35.9745 26.8082 35.8705 26.8162 35.7665C26.8242 35.6545 26.8362 35.5385 26.8522 35.4185L27.5362 31.4465H28.6162L27.9202 35.3945C27.9042 35.4745 27.8922 35.5465 27.8842 35.6105C27.8842 35.6665 27.8842 35.7305 27.8842 35.8025C27.8842 36.1625 27.9882 36.4305 28.1962 36.6065C28.4042 36.7825 28.6482 36.8705 28.9282 36.8705C29.1522 36.8705 29.3762 36.8185 29.6002 36.7145C29.8322 36.6025 30.0442 36.4465 30.2362 36.2465C30.4282 36.0465 30.5962 35.8025 30.7402 35.5145C30.8922 35.2185 31.0002 34.8825 31.0642 34.5065L31.6042 31.4465H32.6842L31.8922 35.9945C31.8842 36.0345 31.8762 36.0825 31.8682 36.1385C31.8682 36.1865 31.8682 36.2385 31.8682 36.2945C31.8682 36.5185 31.9322 36.6785 32.0602 36.7745C32.1882 36.8625 32.3562 36.9065 32.5642 36.9065L32.1922 37.7465C31.7602 37.7465 31.4282 37.6425 31.1962 37.4345C30.9722 37.2265 30.8602 36.8945 30.8602 36.4385V36.3305C30.2762 37.3305 29.5122 37.8305 28.5682 37.8305ZM34.6055 33.1985C34.6135 33.1585 34.6175 33.1145 34.6175 33.0665C34.6255 33.0105 34.6295 32.9545 34.6295 32.8985C34.6295 32.6745 34.5655 32.5185 34.4375 32.4305C34.3095 32.3345 34.1415 32.2865 33.9335 32.2865L34.3055 31.4465C34.7375 31.4465 35.0655 31.5465 35.2895 31.7465C35.5135 31.9465 35.6255 32.2505 35.6255 32.6585V32.8985C35.8575 32.3225 36.1535 31.9145 36.5135 31.6745C36.8815 31.4265 37.2975 31.3025 37.7615 31.3025C37.9455 31.3025 38.1015 31.3185 38.2295 31.3505C38.3655 31.3745 38.4775 31.4065 38.5655 31.4465L38.0855 32.5025C37.9895 32.4625 37.8895 32.4345 37.7855 32.4185C37.6815 32.4025 37.5615 32.3945 37.4255 32.3945C37.2095 32.3945 36.9935 32.4505 36.7775 32.5625C36.5615 32.6665 36.3575 32.8465 36.1655 33.1025C35.9735 33.3585 35.7975 33.6945 35.6375 34.1105C35.4775 34.5265 35.3455 35.0425 35.2415 35.6585L34.8935 37.6865H33.8135L34.6055 33.1985ZM39.5767 37.6865H38.4967L39.5887 31.4465H40.6687L39.5767 37.6865ZM40.3807 30.3785C40.1567 30.3785 39.9847 30.3145 39.8647 30.1865C39.7527 30.0505 39.6967 29.8945 39.6967 29.7185C39.6967 29.4625 39.7767 29.2585 39.9367 29.1065C40.0967 28.9465 40.2967 28.8665 40.5367 28.8665C40.7607 28.8665 40.9287 28.9345 41.0407 29.0705C41.1607 29.1985 41.2207 29.3505 41.2207 29.5265C41.2207 29.7825 41.1407 29.9905 40.9807 30.1505C40.8207 30.3025 40.6207 30.3785 40.3807 30.3785ZM41.7713 31.6745H42.8753L43.4513 29.7065H44.2793L43.9313 31.6745H45.6593L45.5033 32.6105H43.7633L43.2593 35.5265C43.2273 35.6865 43.2113 35.8385 43.2113 35.9825C43.2113 36.2625 43.2913 36.4825 43.4513 36.6425C43.6193 36.7945 43.8433 36.8705 44.1233 36.8705C44.3553 36.8705 44.5473 36.8385 44.6993 36.7745C44.8593 36.7025 45.0073 36.6305 45.1433 36.5585L45.2753 37.4945C45.1233 37.5825 44.9313 37.6585 44.6993 37.7225C44.4753 37.7945 44.2233 37.8305 43.9433 37.8305C43.7193 37.8305 43.4993 37.7945 43.2833 37.7225C43.0673 37.6585 42.8753 37.5585 42.7073 37.4225C42.5393 37.2785 42.4033 37.0945 42.2993 36.8705C42.1953 36.6465 42.1433 36.3785 42.1433 36.0665C42.1433 35.9785 42.1473 35.8905 42.1553 35.8025C42.1633 35.7065 42.1753 35.5985 42.1913 35.4785L42.6833 32.6105H41.6153L41.7713 31.6745ZM48.8136 37.8305C48.4136 37.8305 48.0496 37.7665 47.7216 37.6385C47.3936 37.5025 47.1096 37.3145 46.8696 37.0745C46.6376 36.8265 46.4536 36.5265 46.3176 36.1745C46.1896 35.8225 46.1256 35.4265 46.1256 34.9865C46.1256 34.4905 46.2056 34.0185 46.3656 33.5705C46.5256 33.1225 46.7496 32.7305 47.0376 32.3945C47.3336 32.0585 47.6896 31.7945 48.1056 31.6025C48.5216 31.4025 48.9856 31.3025 49.4976 31.3025C49.8416 31.3025 50.1496 31.3545 50.4216 31.4585C50.6936 31.5625 50.9216 31.6985 51.1056 31.8665C51.2976 32.0345 51.4416 32.2305 51.5376 32.4545C51.6416 32.6785 51.6936 32.9105 51.6936 33.1505C51.6936 33.5985 51.5856 33.9625 51.3696 34.2425C51.1616 34.5225 50.8976 34.7465 50.5776 34.9145C50.2576 35.0745 49.9056 35.1865 49.5216 35.2505C49.1376 35.3065 48.7736 35.3345 48.4296 35.3345C48.2136 35.3345 47.9976 35.3265 47.7816 35.3105C47.5736 35.2865 47.3896 35.2625 47.2296 35.2385C47.2936 35.7665 47.4776 36.1705 47.7816 36.4505C48.0936 36.7305 48.4976 36.8705 48.9936 36.8705C49.3936 36.8705 49.7496 36.8185 50.0616 36.7145C50.3736 36.6105 50.6376 36.5065 50.8536 36.4025L50.9496 37.3625C50.7096 37.4745 50.4056 37.5825 50.0376 37.6865C49.6776 37.7825 49.2696 37.8305 48.8136 37.8305ZM49.4136 32.2145C49.1336 32.2145 48.8696 32.2705 48.6216 32.3825C48.3816 32.4865 48.1656 32.6345 47.9736 32.8265C47.7896 33.0185 47.6336 33.2465 47.5056 33.5105C47.3856 33.7745 47.3016 34.0625 47.2536 34.3745C47.4376 34.4145 47.6216 34.4425 47.8056 34.4585C47.9896 34.4745 48.1976 34.4825 48.4296 34.4825C49.1096 34.4825 49.6416 34.3905 50.0256 34.2065C50.4176 34.0145 50.6136 33.6905 50.6136 33.2345C50.6136 32.9545 50.5016 32.7145 50.2776 32.5145C50.0616 32.3145 49.7736 32.2145 49.4136 32.2145Z" fill="#181725"/>
</svg>
