<svg width="28" height="42" viewBox="0 0 28 42" fill="none" xmlns="http://www.w3.org/2000/svg">
<path d="M11.5 9.236C12.03 9.711 12.732 10 13.5 10H15.5C16.2381 10.001 16.9505 9.72888 17.5 9.236H11.5ZM11.5 9.236C10.9505 9.72888 10.2381 10.001 9.5 10L11.5 9.236ZM10.55 4V3.95H10.5H7.5C7.22153 3.95 6.95445 4.06062 6.75754 4.25754C6.56063 4.45445 6.45 4.72152 6.45 5V7C6.45 7.27848 6.56063 7.54555 6.75754 7.74246C6.95445 7.93937 7.22153 8.05 7.5 8.05H9.5C9.77848 8.05 10.0456 7.93937 10.2425 7.74246C10.4394 7.54555 10.55 7.27848 10.55 7V4ZM7.51 9.95H7.46V10V19.965V20.015H7.51H9.5H9.55V19.965V15C9.55 14.4828 9.75545 13.9868 10.1211 13.6211C10.4868 13.2554 10.9828 13.05 11.5 13.05H13.5C14.0172 13.05 14.5132 13.2554 14.8789 13.6211C15.2446 13.9868 15.45 14.4828 15.45 15V19.965V20.015H15.5H21.513H21.563V19.965V10V9.95H21.513H19.5C18.7448 9.95 18.0545 9.66585 17.5334 9.19877L17.5 9.16884L17.4666 9.19878C16.9263 9.68342 16.2259 9.951 15.5001 9.95H15.5H13.5C12.7448 9.95 12.0545 9.66585 11.5334 9.19877L11.5 9.16884L11.4666 9.19878C10.9263 9.68342 10.2259 9.951 9.50007 9.95H9.5H7.51ZM5.50817 9.17712C5.21173 8.90635 4.9737 8.57766 4.8089 8.21118C4.63767 7.83041 4.54942 7.41757 4.55 7.00007V7V5C4.55 4.21761 4.86081 3.46727 5.41404 2.91403C5.96727 2.3608 6.71761 2.05 7.5 2.05H21.5C22.2824 2.05 23.0327 2.3608 23.586 2.91403C24.1392 3.46727 24.45 4.21761 24.45 5V7C24.45 7.86733 24.0764 8.64803 23.4795 9.18792L23.463 9.20281V9.225V19.965C23.463 20.4822 23.2576 20.9782 22.8919 21.3439C22.5262 21.7096 22.0302 21.915 21.513 21.915H13.873V21.9141L13.8637 21.9159C13.7438 21.9385 13.622 21.95 13.5 21.95H11.5C11.378 21.95 11.2562 21.9385 11.1363 21.9159L11.1365 21.915H11.127H7.511C6.99383 21.915 6.49784 21.7096 6.13214 21.3439C5.76645 20.9782 5.561 20.4822 5.561 19.965V9.245V9.1243L5.50817 9.17712ZM13.55 15V14.95H13.5H11.5H11.45V15V19.965V20.015H11.5H13.5V19.966H13.55V19.965V19.915V15ZM16.55 4V3.95H16.5H12.5H12.45V4V7C12.45 7.27848 12.5606 7.54555 12.7575 7.74246C12.9545 7.93937 13.2215 8.05 13.5 8.05H15.5C15.7785 8.05 16.0456 7.93937 16.2425 7.74246C16.4394 7.54555 16.55 7.27848 16.55 7V4ZM18.5 3.95H18.45V4V7C18.45 7.27848 18.5606 7.54555 18.7575 7.74246C18.9545 7.93937 19.2215 8.05 19.5 8.05H21.5C21.7785 8.05 22.0456 7.93937 22.2425 7.74246C22.4394 7.54555 22.55 7.27848 22.55 7V5C22.55 4.72152 22.4394 4.45445 22.2425 4.25754C22.0456 4.06062 21.7785 3.95 21.5 3.95H18.5ZM18.5 13.05H19.5C19.752 13.05 19.9936 13.1501 20.1718 13.3282C20.3499 13.5064 20.45 13.748 20.45 14V17C20.45 17.252 20.3499 17.4936 20.1718 17.6718C19.9936 17.8499 19.752 17.95 19.5 17.95H18.5C18.248 17.95 18.0064 17.8499 17.8283 17.6718C17.6501 17.4936 17.55 17.252 17.55 17V14C17.55 13.748 17.6501 13.5064 17.8283 13.3282C18.0064 13.1501 18.248 13.05 18.5 13.05Z" fill="#181725" stroke="white" stroke-width="0.1"/>
<path d="M4.68083 36.0444C4.68083 35.8764 4.65683 35.7244 4.60883 35.5884C4.56083 35.4444 4.47283 35.3004 4.34483 35.1564C4.21683 35.0124 4.04483 34.8644 3.82883 34.7124C3.62083 34.5524 3.34883 34.3804 3.01283 34.1964C2.70083 34.0204 2.43683 33.8484 2.22083 33.6804C2.00483 33.5124 1.82483 33.3364 1.68083 33.1524C1.54483 32.9684 1.44483 32.7684 1.38083 32.5524C1.32483 32.3364 1.29683 32.0964 1.29683 31.8324C1.29683 31.4964 1.36483 31.1924 1.50083 30.9204C1.63683 30.6484 1.82883 30.4164 2.07683 30.2244C2.32483 30.0324 2.62083 29.8844 2.96483 29.7804C3.30883 29.6764 3.68883 29.6244 4.10483 29.6244C4.60883 29.6244 5.06083 29.6884 5.46083 29.8164C5.86883 29.9364 6.25283 30.1004 6.61283 30.3084L6.02483 31.2444C5.73683 31.0604 5.43283 30.9084 5.11283 30.7884C4.80083 30.6684 4.43283 30.6084 4.00883 30.6084C3.52883 30.6084 3.14483 30.7124 2.85683 30.9204C2.57683 31.1204 2.43683 31.3844 2.43683 31.7124C2.43683 31.8644 2.46083 32.0044 2.50883 32.1324C2.55683 32.2604 2.63283 32.3844 2.73683 32.5044C2.84883 32.6244 2.99683 32.7484 3.18083 32.8764C3.36483 33.0044 3.59683 33.1404 3.87683 33.2844C4.26883 33.4924 4.59283 33.7004 4.84883 33.9084C5.10483 34.1084 5.30483 34.3124 5.44883 34.5204C5.60083 34.7284 5.70483 34.9484 5.76083 35.1804C5.81683 35.4124 5.84483 35.6644 5.84483 35.9364C5.84483 36.3044 5.77283 36.6364 5.62883 36.9324C5.48483 37.2284 5.28083 37.4804 5.01683 37.6884C4.75283 37.8884 4.43683 38.0444 4.06883 38.1564C3.70083 38.2604 3.29683 38.3124 2.85683 38.3124C2.28083 38.3124 1.76083 38.2364 1.29683 38.0844C0.832828 37.9244 0.424828 37.7044 0.0728281 37.4244L0.816828 36.5004C1.08883 36.7484 1.40483 36.9484 1.76483 37.1004C2.13283 37.2444 2.53683 37.3164 2.97683 37.3164C3.49683 37.3164 3.90883 37.2044 4.21283 36.9804C4.52483 36.7484 4.68083 36.4364 4.68083 36.0444ZM11.8696 33.7524C11.8696 33.4484 11.7776 33.2044 11.5936 33.0204C11.4176 32.8284 11.1856 32.7324 10.8976 32.7324C10.6816 32.7324 10.4496 32.7884 10.2016 32.9004C9.96158 33.0124 9.72558 33.1884 9.49358 33.4284C9.26958 33.6604 9.06558 33.9564 8.88158 34.3164C8.70558 34.6764 8.57358 35.1084 8.48558 35.6124L8.04158 38.1684H6.96158L8.52158 29.2884H9.60158L8.90558 33.2364C9.15358 32.7964 9.47758 32.4444 9.87758 32.1804C10.2776 31.9164 10.7056 31.7844 11.1616 31.7844C11.4336 31.7844 11.6816 31.8284 11.9056 31.9164C12.1296 32.0044 12.3176 32.1284 12.4696 32.2884C12.6296 32.4404 12.7496 32.6204 12.8296 32.8284C12.9176 33.0364 12.9616 33.2604 12.9616 33.5004C12.9616 33.7084 12.9376 33.9604 12.8896 34.2564L12.2056 38.1684H11.1256L11.7856 34.4364C11.8256 34.2444 11.8496 34.1044 11.8576 34.0164C11.8656 33.9284 11.8696 33.8404 11.8696 33.7524ZM16.956 37.3524C17.316 37.3524 17.636 37.2844 17.916 37.1484C18.196 37.0124 18.436 36.8244 18.636 36.5844C18.836 36.3444 18.988 36.0644 19.092 35.7444C19.196 35.4244 19.248 35.0764 19.248 34.7004C19.248 34.4284 19.204 34.1724 19.116 33.9324C19.036 33.6924 18.916 33.4844 18.756 33.3084C18.604 33.1324 18.416 32.9964 18.192 32.9004C17.968 32.7964 17.712 32.7444 17.424 32.7444C17.072 32.7444 16.752 32.8124 16.464 32.9484C16.184 33.0844 15.944 33.2724 15.744 33.5124C15.544 33.7524 15.392 34.0364 15.288 34.3644C15.184 34.6844 15.132 35.0284 15.132 35.3964C15.132 35.6684 15.172 35.9244 15.252 36.1644C15.332 36.4044 15.448 36.6124 15.6 36.7884C15.76 36.9644 15.952 37.1044 16.176 37.2084C16.408 37.3044 16.668 37.3524 16.956 37.3524ZM16.92 38.3124C16.472 38.3124 16.068 38.2444 15.708 38.1084C15.356 37.9644 15.056 37.7684 14.808 37.5204C14.56 37.2724 14.368 36.9764 14.232 36.6324C14.096 36.2804 14.028 35.9004 14.028 35.4924C14.028 34.9724 14.108 34.4884 14.268 34.0404C14.428 33.5844 14.656 33.1924 14.952 32.8644C15.256 32.5284 15.62 32.2644 16.044 32.0724C16.468 31.8804 16.94 31.7844 17.46 31.7844C17.9 31.7844 18.3 31.8564 18.66 32.0004C19.02 32.1364 19.324 32.3284 19.572 32.5764C19.82 32.8244 20.012 33.1244 20.148 33.4764C20.284 33.8204 20.352 34.1964 20.352 34.6044C20.352 35.1244 20.272 35.6124 20.112 36.0684C19.952 36.5164 19.72 36.9084 19.416 37.2444C19.12 37.5724 18.76 37.8324 18.336 38.0244C17.912 38.2164 17.44 38.3124 16.92 38.3124ZM21.8964 31.9284C22.7284 31.9284 23.1444 32.2884 23.1444 33.0084V33.2604C23.3764 32.8284 23.6724 32.4764 24.0324 32.2044C24.4004 31.9244 24.8324 31.7844 25.3284 31.7844C25.6484 31.7844 25.9404 31.8484 26.2044 31.9764C26.4684 32.1044 26.6924 32.2844 26.8764 32.5164C27.0604 32.7404 27.2004 33.0124 27.2964 33.3324C27.4004 33.6444 27.4524 33.9924 27.4524 34.3764C27.4524 34.9684 27.3644 35.5084 27.1884 35.9964C27.0124 36.4764 26.7804 36.8884 26.4924 37.2324C26.2044 37.5764 25.8724 37.8444 25.4964 38.0364C25.1284 38.2204 24.7484 38.3124 24.3564 38.3124C23.9724 38.3124 23.6124 38.2164 23.2764 38.0244C22.9484 37.8324 22.6924 37.5964 22.5084 37.3164L21.8964 40.8084H20.8164L22.0644 33.6684C22.0884 33.5404 22.1004 33.4284 22.1004 33.3324C22.1004 32.9564 21.9044 32.7684 21.5124 32.7684L21.8964 31.9284ZM24.2604 37.3524C24.5404 37.3524 24.8044 37.2844 25.0524 37.1484C25.3084 37.0044 25.5324 36.8084 25.7244 36.5604C25.9164 36.3044 26.0684 36.0004 26.1804 35.6484C26.2924 35.2964 26.3484 34.9084 26.3484 34.4844C26.3484 33.9324 26.2244 33.5004 25.9764 33.1884C25.7284 32.8764 25.4044 32.7204 25.0044 32.7204C24.7644 32.7204 24.5284 32.7804 24.2964 32.9004C24.0724 33.0124 23.8684 33.1724 23.6844 33.3804C23.5004 33.5884 23.3364 33.8444 23.1924 34.1484C23.0564 34.4444 22.9564 34.7724 22.8924 35.1324L22.6764 36.3444C22.8524 36.6724 23.0764 36.9244 23.3484 37.1004C23.6284 37.2684 23.9324 37.3524 24.2604 37.3524Z" fill="#181725"/>
</svg>
